<svg id="svg" version="1.1" xmlns="http://www.w3.org/2000/svg" xmlns:xlink="http://www.w3.org/1999/xlink" width="400" height="119.69532100108815" viewBox="0, 0, 400,119.69532100108815"><g id="svgg"><path id="path0" d="M40.000 32.992 C 40.000 33.192,40.376 34.055,40.511 34.167 C 40.604 34.244,41.355 35.556,41.994 36.759 C 42.142 37.039,42.430 37.500,42.632 37.785 C 42.834 38.069,43.000 38.417,43.000 38.559 C 43.000 38.701,43.098 38.877,43.217 38.950 C 43.337 39.023,43.564 39.346,43.722 39.667 C 43.880 39.987,44.080 40.362,44.166 40.500 C 44.253 40.637,44.717 41.425,45.197 42.250 C 45.678 43.075,46.113 43.788,46.165 43.833 C 46.217 43.879,46.400 44.235,46.572 44.625 C 46.743 45.015,46.936 45.333,46.999 45.333 C 47.062 45.333,47.212 45.633,47.333 46.000 C 47.454 46.367,47.620 46.667,47.702 46.667 C 47.784 46.667,47.929 46.892,48.025 47.167 C 48.121 47.442,48.253 47.667,48.319 47.667 C 48.384 47.667,48.541 47.929,48.667 48.250 C 48.793 48.571,48.942 48.833,48.999 48.833 C 49.056 48.833,49.242 49.152,49.411 49.542 C 49.581 49.931,49.766 50.288,49.822 50.333 C 49.878 50.379,50.019 50.604,50.136 50.833 C 50.254 51.063,50.532 51.550,50.755 51.917 C 50.977 52.283,51.292 52.846,51.455 53.167 C 51.617 53.487,51.806 53.775,51.875 53.806 C 51.944 53.836,52.000 53.918,52.000 53.988 C 52.000 54.058,52.375 54.746,52.833 55.516 C 53.291 56.286,53.666 57.007,53.667 57.117 C 53.667 57.227,53.771 57.377,53.899 57.450 C 54.026 57.523,54.255 57.846,54.406 58.167 C 54.558 58.487,54.884 59.105,55.132 59.538 C 55.380 59.972,55.837 60.797,56.148 61.372 C 56.458 61.946,56.762 62.454,56.823 62.500 C 56.884 62.546,57.062 62.859,57.218 63.195 C 57.375 63.531,57.559 63.831,57.626 63.862 C 57.694 63.892,58.005 64.404,58.318 65.000 C 58.630 65.596,58.930 66.121,58.984 66.167 C 59.181 66.332,59.500 67.001,59.500 67.248 C 59.500 67.386,59.570 67.500,59.654 67.500 C 59.739 67.500,59.937 67.744,60.093 68.042 C 60.443 68.710,60.880 69.496,61.506 70.583 C 61.769 71.042,62.109 71.679,62.261 72.000 C 62.413 72.321,62.593 72.621,62.661 72.667 C 62.729 72.712,63.039 73.237,63.351 73.833 C 63.662 74.429,64.010 75.016,64.125 75.137 C 64.240 75.258,64.333 75.421,64.333 75.500 C 64.333 75.579,64.440 75.750,64.571 75.880 C 64.702 76.011,64.927 76.373,65.072 76.684 C 65.217 76.995,65.555 77.625,65.823 78.083 C 66.091 78.542,66.387 79.082,66.481 79.284 C 66.575 79.485,66.858 79.973,67.108 80.367 C 67.663 81.238,68.247 82.245,68.586 82.917 C 68.725 83.192,69.137 83.893,69.503 84.475 C 69.868 85.057,70.167 85.601,70.167 85.683 C 70.167 85.769,72.350 85.833,75.250 85.833 C 80.171 85.833,80.333 85.823,80.333 85.510 C 80.333 85.332,80.258 85.140,80.167 85.083 C 80.075 85.027,80.000 84.832,80.000 84.652 C 80.000 84.471,79.887 84.280,79.750 84.227 C 79.612 84.174,79.500 84.039,79.500 83.927 C 79.500 83.699,78.495 82.114,78.295 82.028 C 78.225 81.997,78.167 81.873,78.167 81.752 C 78.167 81.575,77.281 79.927,76.330 78.333 C 76.248 78.196,75.713 77.258,75.141 76.250 C 74.569 75.242,74.056 74.379,74.000 74.333 C 73.944 74.287,73.799 74.006,73.679 73.708 C 73.558 73.410,73.399 73.167,73.324 73.167 C 73.249 73.167,73.093 72.904,72.977 72.583 C 72.861 72.262,72.711 72.000,72.644 72.000 C 72.577 72.000,72.427 71.737,72.311 71.417 C 72.195 71.096,72.027 70.833,71.939 70.833 C 71.850 70.833,71.825 70.786,71.883 70.728 C 71.942 70.670,71.842 70.434,71.661 70.205 C 71.481 69.976,71.333 69.686,71.333 69.561 C 71.333 69.436,71.267 69.333,71.186 69.333 C 71.105 69.333,70.993 69.202,70.938 69.042 C 70.803 68.653,70.023 67.288,69.871 67.174 C 69.804 67.124,69.618 66.821,69.456 66.500 C 69.295 66.179,69.019 65.692,68.844 65.417 C 68.668 65.142,68.519 64.785,68.512 64.625 C 68.505 64.465,68.430 64.333,68.344 64.333 C 68.202 64.333,67.464 63.081,66.625 61.417 C 66.441 61.050,66.229 60.711,66.155 60.663 C 66.081 60.616,65.938 60.391,65.838 60.163 C 65.737 59.936,65.403 59.337,65.095 58.833 C 64.787 58.329,64.287 57.448,63.983 56.875 C 63.680 56.302,63.372 55.833,63.299 55.833 C 63.226 55.833,63.167 55.731,63.167 55.607 C 63.167 55.482,62.979 55.104,62.750 54.766 C 62.521 54.428,62.333 54.046,62.333 53.918 C 62.333 53.789,62.239 53.623,62.125 53.550 C 62.010 53.477,61.807 53.192,61.674 52.917 C 61.540 52.642,61.345 52.304,61.239 52.167 C 61.133 52.029,60.799 51.467,60.497 50.917 C 60.194 50.367,59.772 49.617,59.558 49.250 C 59.344 48.883,59.025 48.273,58.848 47.894 C 58.672 47.514,58.465 47.177,58.389 47.144 C 58.312 47.110,58.118 46.821,57.957 46.500 C 57.399 45.389,56.283 43.413,55.745 42.583 C 55.447 42.125,55.153 41.581,55.091 41.375 C 55.029 41.169,54.923 41.000,54.856 41.000 C 54.790 41.000,54.476 40.510,54.159 39.912 C 53.842 39.314,53.507 38.695,53.414 38.537 C 53.322 38.379,52.959 37.744,52.609 37.126 C 52.259 36.509,51.904 35.960,51.820 35.908 C 51.736 35.856,51.667 35.701,51.667 35.562 C 51.667 35.424,51.479 35.065,51.250 34.765 C 51.021 34.464,50.833 34.092,50.833 33.937 C 50.833 33.783,50.724 33.614,50.590 33.563 C 50.456 33.511,50.301 33.326,50.245 33.151 C 50.132 32.795,40.000 32.638,40.000 32.992 M37.074 37.715 C 36.978 37.826,36.781 38.142,36.638 38.417 C 36.495 38.692,36.141 39.329,35.851 39.833 C 35.562 40.337,35.210 40.975,35.068 41.250 C 34.926 41.525,34.647 42.024,34.447 42.359 C 33.431 44.059,32.833 45.156,32.833 45.319 C 32.833 45.418,32.760 45.500,32.670 45.500 C 32.069 45.500,32.548 47.122,33.471 48.208 C 33.607 48.369,33.658 48.500,33.583 48.500 C 33.509 48.500,33.563 48.631,33.702 48.792 C 33.842 48.952,33.985 49.158,34.020 49.250 C 34.147 49.584,35.400 51.752,35.513 51.833 C 35.577 51.879,35.751 52.179,35.899 52.500 C 36.048 52.821,36.468 53.571,36.832 54.167 C 37.196 54.762,37.495 55.344,37.497 55.458 C 37.499 55.573,37.566 55.667,37.646 55.667 C 37.727 55.667,37.886 55.892,38.000 56.167 C 38.114 56.442,38.273 56.667,38.354 56.667 C 38.434 56.667,38.500 56.769,38.500 56.893 C 38.500 57.018,38.688 57.396,38.917 57.734 C 39.146 58.072,39.333 58.425,39.333 58.519 C 39.333 58.612,39.512 58.928,39.731 59.219 C 39.949 59.511,40.179 59.919,40.242 60.125 C 40.305 60.331,40.412 60.500,40.480 60.500 C 40.549 60.500,40.707 60.762,40.833 61.083 C 40.959 61.404,41.105 61.667,41.158 61.667 C 41.210 61.667,41.552 62.245,41.918 62.951 C 42.284 63.658,42.672 64.333,42.781 64.452 C 42.889 64.571,43.031 64.837,43.095 65.043 C 43.159 65.248,43.264 65.454,43.328 65.500 C 43.392 65.546,43.731 66.108,44.081 66.750 C 44.431 67.392,44.800 68.067,44.900 68.250 C 45.001 68.433,45.210 68.733,45.364 68.917 C 45.518 69.100,45.728 69.438,45.829 69.667 C 45.931 69.896,46.237 70.458,46.508 70.917 C 46.780 71.375,47.089 71.919,47.194 72.125 C 47.300 72.331,47.447 72.500,47.522 72.500 C 47.596 72.500,47.613 72.612,47.560 72.750 C 47.508 72.887,47.542 73.000,47.638 73.000 C 47.733 73.000,47.863 73.163,47.926 73.362 C 47.989 73.561,48.182 73.876,48.354 74.060 C 48.526 74.245,48.667 74.534,48.667 74.703 C 48.667 74.872,48.768 75.050,48.893 75.097 C 49.017 75.145,49.217 75.480,49.336 75.842 C 49.456 76.204,49.602 76.500,49.661 76.500 C 49.721 76.500,49.908 76.819,50.078 77.208 C 50.247 77.598,50.487 77.977,50.610 78.050 C 50.733 78.123,50.833 78.292,50.833 78.425 C 50.833 78.558,50.921 78.667,51.028 78.667 C 51.135 78.667,51.177 78.712,51.121 78.768 C 51.066 78.823,51.092 78.955,51.179 79.059 C 51.525 79.474,52.113 80.456,52.459 81.195 C 52.659 81.623,52.901 82.022,52.997 82.082 C 53.093 82.141,53.129 82.260,53.075 82.346 C 53.022 82.432,53.096 82.547,53.239 82.602 C 53.383 82.657,53.500 82.844,53.500 83.018 C 53.500 83.191,53.558 83.333,53.628 83.333 C 53.760 83.333,54.404 84.508,54.571 85.052 C 54.623 85.218,54.742 85.307,54.836 85.248 C 54.931 85.190,54.998 85.204,54.984 85.279 C 54.890 85.825,54.966 85.833,60.101 85.833 L 65.203 85.833 65.088 85.377 C 65.025 85.126,64.919 84.882,64.853 84.835 C 64.787 84.788,64.603 84.487,64.445 84.167 C 64.135 83.539,63.934 83.195,63.424 82.426 C 63.244 82.156,62.976 81.706,62.829 81.426 C 62.327 80.475,61.802 79.584,61.651 79.425 C 61.568 79.338,61.500 79.135,61.500 78.975 C 61.500 78.815,61.406 78.623,61.292 78.550 C 61.053 78.398,60.594 77.667,60.239 76.875 C 60.105 76.577,59.922 76.333,59.831 76.333 C 59.741 76.333,59.667 76.223,59.667 76.088 C 59.667 75.954,59.526 75.597,59.355 75.297 C 59.183 74.996,58.902 74.491,58.730 74.174 C 58.557 73.858,58.323 73.496,58.208 73.371 C 58.094 73.245,58.000 73.068,58.000 72.977 C 58.000 72.886,57.813 72.565,57.583 72.265 C 57.354 71.964,57.167 71.632,57.167 71.526 C 57.167 71.420,57.098 71.333,57.013 71.333 C 56.929 71.333,56.813 71.118,56.755 70.856 C 56.697 70.593,56.522 70.237,56.366 70.064 C 56.209 69.891,55.987 69.563,55.873 69.333 C 55.759 69.104,55.440 68.542,55.165 68.083 C 54.890 67.625,54.583 67.044,54.483 66.792 C 54.383 66.540,54.241 66.333,54.168 66.333 C 54.096 66.333,53.920 66.042,53.778 65.687 C 53.635 65.331,53.215 64.570,52.843 63.994 C 52.471 63.419,52.167 62.854,52.167 62.738 C 52.167 62.622,52.104 62.503,52.028 62.472 C 51.951 62.442,51.600 61.892,51.246 61.250 C 50.892 60.608,50.553 60.046,50.492 60.000 C 50.430 59.954,50.280 59.635,50.157 59.292 C 50.034 58.948,49.871 58.667,49.796 58.667 C 49.720 58.667,49.587 58.479,49.500 58.250 C 49.413 58.021,49.265 57.833,49.171 57.833 C 49.077 57.833,48.995 57.702,48.988 57.542 C 48.981 57.381,48.834 57.025,48.660 56.750 C 48.486 56.475,48.226 55.990,48.082 55.673 C 47.938 55.355,47.766 55.055,47.698 55.006 C 47.631 54.957,47.483 54.729,47.370 54.500 C 47.256 54.271,46.780 53.446,46.313 52.667 C 45.846 51.887,45.358 51.006,45.229 50.708 C 45.101 50.410,44.922 50.167,44.831 50.167 C 44.741 50.167,44.667 50.047,44.667 49.901 C 44.667 49.754,44.498 49.398,44.292 49.109 C 43.854 48.495,43.461 47.815,43.074 47.000 C 42.921 46.679,42.743 46.379,42.677 46.333 C 42.612 46.288,42.508 46.137,42.445 46.000 C 42.383 45.862,42.109 45.375,41.837 44.917 C 41.564 44.458,41.228 43.858,41.089 43.583 C 40.950 43.308,40.629 42.737,40.376 42.314 C 39.952 41.603,38.786 39.596,38.147 38.476 C 37.596 37.510,37.383 37.359,37.074 37.715 M29.333 51.250 C 29.246 51.479,29.098 51.667,29.004 51.667 C 28.910 51.667,28.833 51.773,28.833 51.903 C 28.833 52.201,28.293 53.164,28.125 53.166 C 28.056 53.166,28.000 53.311,28.000 53.488 C 28.000 53.665,27.893 53.916,27.762 54.047 C 27.632 54.178,27.408 54.539,27.266 54.851 C 27.123 55.162,26.932 55.529,26.841 55.667 C 25.639 57.485,25.343 58.160,25.671 58.336 C 26.020 58.523,26.117 58.351,25.826 58.060 C 25.706 57.939,25.741 57.814,25.942 57.651 C 26.129 57.499,26.187 57.490,26.105 57.625 C 26.022 57.765,26.093 57.833,26.323 57.833 C 26.517 57.833,26.667 57.725,26.667 57.583 C 26.667 57.178,26.955 57.298,27.068 57.750 C 27.126 57.979,27.268 58.167,27.383 58.167 C 27.499 58.167,27.701 58.317,27.833 58.500 C 27.965 58.683,28.189 58.833,28.329 58.833 C 28.470 58.833,28.693 59.077,28.824 59.375 C 29.115 60.035,29.359 60.297,29.607 60.214 C 29.709 60.180,29.841 60.343,29.900 60.576 C 29.958 60.809,30.101 61.000,30.216 61.000 C 30.332 61.000,30.535 61.150,30.667 61.333 C 30.799 61.517,31.039 61.667,31.201 61.667 C 31.417 61.667,31.525 61.849,31.605 62.346 C 31.702 62.955,31.753 63.014,32.103 62.927 C 32.544 62.816,32.509 63.681,32.054 64.136 C 31.767 64.424,31.770 64.680,32.061 64.569 C 32.186 64.521,32.374 64.294,32.478 64.065 C 32.583 63.835,32.727 63.684,32.799 63.729 C 32.872 63.774,32.942 63.665,32.955 63.487 C 32.969 63.309,33.134 62.946,33.323 62.681 C 33.512 62.416,33.667 62.116,33.667 62.016 C 33.667 61.916,33.733 61.833,33.814 61.833 C 33.895 61.833,34.005 61.702,34.059 61.542 C 34.250 60.976,34.788 60.177,34.902 60.291 C 34.966 60.355,34.968 60.278,34.908 60.120 C 34.844 59.955,34.876 59.833,34.982 59.833 C 35.084 59.833,35.167 59.721,35.167 59.583 C 35.167 59.446,35.100 59.333,35.019 59.333 C 34.938 59.333,34.830 59.202,34.778 59.042 C 34.727 58.881,34.458 58.375,34.181 57.917 C 33.904 57.458,33.523 56.821,33.334 56.500 C 33.146 56.179,32.834 55.654,32.642 55.333 C 32.450 55.012,32.278 54.650,32.260 54.528 C 32.241 54.406,32.157 54.256,32.072 54.195 C 31.809 54.005,31.336 53.053,31.449 52.940 C 31.508 52.881,31.472 52.833,31.370 52.833 C 31.195 52.833,31.087 52.669,30.411 51.375 C 30.068 50.718,29.558 50.659,29.333 51.250 M22.750 78.174 C 17.492 81.273,10.058 85.500,9.867 85.500 C 9.757 85.500,9.667 85.575,9.667 85.667 C 9.667 85.777,16.500 85.833,29.833 85.833 L 50.000 85.833 50.000 85.493 C 50.000 85.161,49.892 84.983,49.292 84.321 C 49.131 84.145,49.000 83.931,49.000 83.847 C 49.000 83.678,48.473 82.633,48.321 82.500 C 48.269 82.454,48.177 82.304,48.117 82.167 C 48.057 82.029,47.779 81.542,47.500 81.083 C 47.221 80.625,46.863 79.987,46.704 79.667 C 46.546 79.346,46.372 79.046,46.316 79.000 C 46.261 78.954,46.076 78.617,45.906 78.250 C 45.735 77.883,45.499 77.484,45.381 77.363 C 45.263 77.242,45.167 77.036,45.167 76.905 C 45.167 76.701,43.736 76.669,35.208 76.684 L 25.250 76.701 22.750 78.174 " stroke="none" fill="#fcb10d" fill-rule="evenodd"></path><path id="path1" d="M357.250 35.828 C 355.964 35.953,355.333 36.117,355.333 36.326 C 355.333 36.402,355.149 36.510,354.923 36.567 C 354.346 36.712,353.009 38.108,352.422 39.180 L 351.927 40.083 351.864 44.441 L 351.801 48.798 349.776 48.911 C 348.662 48.972,347.506 49.098,347.208 49.191 L 346.667 49.359 346.667 50.596 L 346.667 51.833 349.250 51.833 L 351.833 51.833 351.833 63.583 L 351.833 75.333 353.417 75.333 L 355.000 75.333 355.000 63.583 L 355.000 51.833 359.417 51.833 L 363.833 51.833 363.833 50.333 L 363.833 48.833 359.417 48.833 L 355.000 48.833 355.000 45.750 C 355.000 43.806,355.062 42.667,355.167 42.667 C 355.258 42.667,355.333 42.385,355.333 42.041 C 355.333 40.767,356.164 39.333,356.901 39.333 C 357.032 39.333,357.170 39.240,357.209 39.125 C 357.305 38.835,362.010 38.829,362.358 39.118 C 362.492 39.229,362.935 39.342,363.342 39.368 L 364.083 39.417 364.131 38.000 L 364.178 36.583 363.479 36.281 C 363.063 36.100,362.033 35.916,360.932 35.825 C 358.942 35.660,358.987 35.660,357.250 35.828 M324.871 54.458 L 324.917 72.417 325.318 73.167 C 326.048 74.530,327.008 75.333,327.908 75.333 C 328.142 75.333,328.333 75.408,328.333 75.500 C 328.333 75.598,328.913 75.667,329.740 75.667 C 330.514 75.667,331.193 75.592,331.250 75.500 C 331.307 75.408,331.559 75.333,331.810 75.333 C 332.506 75.333,332.667 75.049,332.667 73.818 C 332.667 72.487,332.689 72.501,330.695 72.496 C 329.530 72.493,329.169 72.431,328.833 72.173 L 328.417 71.852 328.373 54.176 L 328.329 36.500 326.577 36.500 L 324.826 36.500 324.871 54.458 M181.346 38.173 C 176.783 39.118,173.563 42.263,173.132 46.198 C 172.941 47.940,173.186 50.892,173.557 51.309 C 173.691 51.460,173.914 51.858,174.052 52.194 C 174.704 53.773,177.247 55.679,180.583 57.088 C 180.950 57.243,181.468 57.474,181.734 57.602 C 182.000 57.729,182.303 57.833,182.407 57.833 C 182.511 57.833,182.887 57.982,183.243 58.163 C 183.598 58.344,184.308 58.614,184.820 58.762 C 185.331 58.910,185.825 59.090,185.917 59.161 C 186.008 59.232,186.382 59.386,186.746 59.504 C 187.110 59.621,187.635 59.856,187.913 60.025 C 188.190 60.194,188.548 60.332,188.708 60.333 C 188.869 60.333,189.001 60.390,189.002 60.458 C 189.003 60.527,189.303 60.727,189.669 60.902 C 190.034 61.077,190.333 61.283,190.333 61.360 C 190.333 61.437,190.433 61.500,190.555 61.500 C 190.798 61.500,191.445 62.224,192.096 63.225 C 192.748 64.228,192.821 68.248,192.195 68.654 C 192.113 68.707,191.918 69.000,191.762 69.305 C 190.365 72.031,183.931 73.887,179.917 72.723 C 179.550 72.617,178.519 72.398,177.625 72.236 C 176.731 72.075,176.000 71.891,176.000 71.827 C 176.000 71.763,175.705 71.671,175.343 71.622 C 174.982 71.574,174.446 71.414,174.151 71.267 C 173.198 70.792,173.167 70.835,173.167 72.652 L 173.167 74.304 173.837 74.417 C 174.205 74.479,174.599 74.622,174.712 74.735 C 174.995 75.017,175.953 75.333,176.525 75.333 C 176.786 75.333,177.000 75.398,177.000 75.477 C 177.000 75.614,177.589 75.751,179.938 76.163 C 183.460 76.781,190.331 75.886,191.050 74.717 C 191.123 74.598,191.282 74.500,191.402 74.500 C 191.834 74.500,193.432 73.132,194.424 71.912 C 196.437 69.438,197.007 64.692,195.634 61.836 C 195.153 60.833,193.274 58.667,192.887 58.667 C 192.806 58.667,192.614 58.519,192.459 58.338 C 192.304 58.157,191.969 57.957,191.714 57.894 C 191.459 57.830,191.175 57.688,191.083 57.578 C 190.992 57.468,190.317 57.139,189.583 56.847 C 188.850 56.555,188.100 56.248,187.917 56.166 C 187.733 56.083,187.265 55.925,186.875 55.815 C 186.485 55.704,186.167 55.554,186.167 55.481 C 186.167 55.408,185.885 55.299,185.542 55.239 C 185.198 55.179,184.767 55.037,184.583 54.923 C 184.400 54.810,183.950 54.624,183.583 54.511 C 183.217 54.397,182.534 54.123,182.067 53.902 C 181.599 53.681,181.108 53.500,180.975 53.500 C 180.842 53.500,180.650 53.416,180.547 53.314 C 180.356 53.122,179.981 52.898,179.042 52.410 C 178.744 52.255,178.500 52.060,178.500 51.977 C 178.500 51.893,178.313 51.754,178.083 51.667 C 177.854 51.580,177.667 51.398,177.667 51.264 C 177.667 51.129,177.514 50.912,177.328 50.781 C 176.010 49.859,176.640 44.914,178.266 43.417 C 179.104 42.646,179.285 42.513,179.785 42.309 C 180.041 42.205,180.476 42.023,180.752 41.904 C 181.028 41.786,181.649 41.636,182.131 41.572 C 182.613 41.508,183.048 41.391,183.097 41.311 C 183.217 41.117,185.928 41.126,186.294 41.321 C 186.453 41.406,187.247 41.560,188.057 41.663 C 188.868 41.766,189.656 41.913,189.807 41.991 C 189.959 42.068,190.571 42.221,191.166 42.330 C 191.762 42.440,192.287 42.589,192.333 42.660 C 192.448 42.840,194.158 43.191,194.347 43.075 C 194.688 42.864,194.527 40.198,194.167 40.083 C 193.983 40.025,193.833 39.916,193.833 39.842 C 193.833 39.767,193.477 39.619,193.042 39.513 C 192.606 39.406,192.025 39.217,191.750 39.092 C 189.970 38.283,183.553 37.716,181.346 38.173 M338.833 38.676 C 337.125 39.394,337.060 42.811,338.747 43.234 C 338.978 43.292,339.167 43.413,339.167 43.503 C 339.167 43.593,339.504 43.667,339.917 43.667 C 340.329 43.667,340.667 43.592,340.667 43.500 C 340.667 43.408,340.798 43.332,340.958 43.330 C 342.595 43.309,342.987 39.800,341.459 38.846 C 341.002 38.561,339.360 38.454,338.833 38.676 M106.833 39.167 C 106.833 39.350,106.767 39.500,106.686 39.500 C 106.606 39.500,106.458 39.819,106.359 40.208 C 106.260 40.598,106.026 41.214,105.839 41.577 C 105.653 41.940,105.500 42.409,105.500 42.619 C 105.500 42.828,105.439 43.000,105.364 43.000 C 105.289 43.000,105.096 43.431,104.935 43.958 C 104.775 44.485,104.527 45.179,104.385 45.500 C 103.812 46.795,103.687 47.111,103.493 47.750 C 103.381 48.117,103.232 48.492,103.162 48.583 C 103.092 48.675,102.937 49.087,102.818 49.500 C 102.700 49.913,102.513 50.400,102.403 50.583 C 102.293 50.767,102.113 51.217,102.002 51.583 C 101.891 51.950,101.658 52.555,101.483 52.928 C 101.309 53.300,101.167 53.727,101.167 53.876 C 101.167 54.025,101.102 54.187,101.023 54.236 C 100.944 54.285,100.784 54.664,100.668 55.079 C 100.552 55.494,100.400 55.833,100.330 55.833 C 100.261 55.833,100.152 56.115,100.088 56.458 C 100.024 56.802,99.837 57.308,99.673 57.583 C 99.509 57.858,99.278 58.494,99.161 58.996 C 99.044 59.498,98.848 60.009,98.724 60.133 C 98.601 60.256,98.453 60.652,98.395 61.012 C 98.338 61.372,98.237 61.667,98.172 61.667 C 98.107 61.667,97.950 61.985,97.824 62.375 C 97.697 62.765,97.498 63.271,97.381 63.500 C 97.264 63.729,97.122 64.160,97.066 64.458 C 97.009 64.756,96.902 65.000,96.828 65.000 C 96.754 65.000,96.644 65.244,96.583 65.542 C 96.416 66.364,96.115 67.167,95.974 67.167 C 95.905 67.167,95.799 67.448,95.739 67.792 C 95.679 68.135,95.537 68.567,95.423 68.750 C 95.310 68.933,95.124 69.383,95.011 69.750 C 94.897 70.117,94.654 70.749,94.470 71.156 C 94.286 71.563,94.095 72.144,94.046 72.448 C 93.997 72.752,93.903 73.000,93.838 73.000 C 93.773 73.000,93.620 73.319,93.498 73.708 C 93.375 74.098,93.213 74.488,93.138 74.575 C 92.602 75.191,92.957 75.346,94.792 75.297 L 96.583 75.250 96.636 74.792 C 96.665 74.540,96.759 74.333,96.844 74.333 C 96.930 74.333,97.000 74.199,97.000 74.035 C 97.000 73.871,97.150 73.443,97.333 73.083 C 97.517 72.724,97.667 72.335,97.667 72.220 C 97.667 72.104,97.847 71.614,98.069 71.130 C 98.290 70.646,98.524 69.965,98.589 69.617 C 98.654 69.269,98.808 68.882,98.932 68.758 C 99.056 68.634,99.232 68.206,99.323 67.808 C 99.413 67.409,99.640 66.786,99.827 66.423 C 100.014 66.060,100.167 65.623,100.167 65.453 C 100.167 64.655,100.104 64.661,108.775 64.707 L 116.904 64.750 117.060 65.292 C 117.145 65.590,117.272 65.833,117.341 65.833 C 117.410 65.833,117.560 66.227,117.675 66.708 C 117.789 67.190,118.021 67.845,118.191 68.164 C 118.361 68.484,118.500 68.847,118.500 68.972 C 118.500 69.097,118.610 69.436,118.744 69.725 C 118.878 70.014,119.212 70.864,119.486 71.614 C 119.760 72.364,120.066 73.114,120.166 73.281 C 120.266 73.447,120.439 73.958,120.549 74.417 L 120.750 75.250 122.708 75.297 C 123.973 75.327,124.667 75.283,124.667 75.172 C 124.667 75.077,124.599 75.000,124.517 75.000 C 124.434 75.000,124.277 74.627,124.168 74.172 C 124.059 73.716,123.826 73.063,123.651 72.720 C 123.476 72.377,123.333 72.000,123.333 71.881 C 123.333 71.763,123.268 71.667,123.188 71.667 C 123.108 71.667,122.995 71.372,122.938 71.012 C 122.880 70.652,122.734 70.258,122.613 70.137 C 122.492 70.016,122.301 69.542,122.188 69.083 C 122.074 68.625,121.847 67.987,121.683 67.667 C 121.519 67.346,121.332 66.802,121.268 66.458 C 121.204 66.115,121.087 65.833,121.008 65.833 C 120.929 65.833,120.768 65.458,120.651 65.000 C 120.533 64.542,120.386 64.167,120.323 64.167 C 120.260 64.167,120.164 63.944,120.109 63.671 C 119.973 62.989,118.958 60.429,118.797 60.361 C 118.726 60.331,118.667 60.186,118.667 60.040 C 118.667 59.669,118.291 58.667,118.152 58.667 C 118.089 58.667,117.984 58.385,117.920 58.042 C 117.856 57.698,117.622 57.034,117.402 56.567 C 117.181 56.100,117.000 55.594,117.000 55.442 C 117.000 55.290,116.850 54.886,116.667 54.544 C 116.484 54.202,116.288 53.678,116.232 53.378 C 116.176 53.078,116.071 52.833,116.000 52.833 C 115.929 52.833,115.822 52.573,115.762 52.255 C 115.702 51.937,115.562 51.581,115.450 51.464 C 115.338 51.346,115.150 50.875,115.031 50.417 C 114.912 49.958,114.746 49.559,114.662 49.530 C 114.579 49.500,114.460 49.200,114.398 48.863 C 114.336 48.526,114.109 47.861,113.893 47.386 C 113.677 46.910,113.498 46.423,113.495 46.302 C 113.492 46.182,113.305 45.708,113.080 45.250 C 112.854 44.792,112.669 44.337,112.668 44.240 C 112.667 44.142,112.517 43.752,112.333 43.373 C 112.150 42.993,112.000 42.597,112.000 42.492 C 112.000 42.386,111.894 42.064,111.764 41.775 C 111.635 41.486,111.441 40.969,111.335 40.625 C 111.228 40.281,111.072 40.000,110.987 40.000 C 110.903 40.000,110.833 39.856,110.833 39.680 C 110.833 38.870,110.741 38.833,108.732 38.833 C 106.944 38.833,106.833 38.853,106.833 39.167 M123.059 39.085 C 123.006 39.224,123.041 39.431,123.136 39.546 C 123.231 39.661,123.401 40.128,123.515 40.586 C 123.628 41.043,123.767 41.454,123.823 41.500 C 123.880 41.546,124.016 42.028,124.127 42.572 C 124.238 43.116,124.394 43.603,124.473 43.655 C 124.553 43.707,124.712 44.256,124.828 44.875 C 124.943 45.494,125.093 46.000,125.161 46.000 C 125.229 46.000,125.415 46.599,125.573 47.332 C 125.731 48.065,125.919 48.700,125.990 48.744 C 126.061 48.788,126.216 49.295,126.334 49.870 C 126.453 50.446,126.608 50.993,126.679 51.086 C 126.750 51.178,126.901 51.628,127.015 52.086 C 127.128 52.543,127.267 52.954,127.323 53.000 C 127.380 53.046,127.516 53.528,127.627 54.072 C 127.738 54.616,127.895 55.103,127.975 55.155 C 128.056 55.207,128.242 55.844,128.389 56.570 C 128.537 57.297,128.729 57.935,128.817 57.990 C 128.905 58.044,129.065 58.594,129.172 59.211 C 129.280 59.828,129.427 60.333,129.499 60.333 C 129.571 60.333,129.727 60.821,129.846 61.417 C 129.964 62.012,130.112 62.500,130.174 62.500 C 130.237 62.500,130.383 62.950,130.500 63.500 C 130.617 64.050,130.777 64.500,130.856 64.500 C 130.935 64.500,130.999 64.631,130.999 64.792 C 130.996 65.282,131.565 67.333,131.704 67.333 C 131.775 67.333,131.833 67.482,131.833 67.664 C 131.833 68.144,132.216 69.500,132.351 69.500 C 132.414 69.500,132.554 70.005,132.661 70.622 C 132.769 71.240,132.928 71.789,133.014 71.842 C 133.101 71.896,133.288 72.497,133.429 73.178 C 133.571 73.859,133.757 74.488,133.843 74.575 C 133.930 74.662,134.000 74.868,134.000 75.033 C 134.000 75.307,134.191 75.333,136.148 75.333 L 138.296 75.333 138.500 74.250 C 138.612 73.654,138.771 73.167,138.852 73.167 C 138.933 73.167,139.000 72.937,139.000 72.657 C 139.000 72.067,139.321 70.662,139.512 70.414 C 139.585 70.320,139.733 69.720,139.842 69.080 C 139.952 68.440,140.097 67.842,140.165 67.750 C 140.313 67.552,140.613 66.234,140.764 65.125 C 140.823 64.690,140.925 64.333,140.990 64.333 C 141.141 64.333,141.500 62.799,141.500 62.154 C 141.500 61.886,141.565 61.667,141.645 61.667 C 141.725 61.667,141.881 61.206,141.991 60.644 C 142.102 60.081,142.257 59.500,142.335 59.352 C 142.414 59.204,142.565 58.596,142.671 58.000 C 142.778 57.404,142.927 56.840,143.004 56.747 C 143.080 56.654,143.266 55.868,143.417 55.000 C 143.567 54.132,143.757 53.381,143.838 53.330 C 143.919 53.280,144.072 52.679,144.177 51.995 C 144.282 51.310,144.437 50.665,144.522 50.561 C 144.607 50.456,144.784 49.894,144.916 49.311 C 145.848 45.191,145.950 44.997,146.246 46.792 C 146.310 47.181,146.426 47.500,146.504 47.500 C 146.582 47.500,146.693 47.856,146.749 48.292 C 146.899 49.444,147.190 50.724,147.346 50.923 C 147.421 51.018,147.565 51.615,147.667 52.250 C 147.768 52.885,147.911 53.482,147.985 53.577 C 148.166 53.811,148.500 55.214,148.500 55.740 C 148.500 55.975,148.558 56.167,148.629 56.167 C 148.700 56.167,148.897 56.823,149.066 57.625 C 149.235 58.427,149.471 59.386,149.589 59.755 C 149.708 60.124,149.859 60.724,149.926 61.088 C 149.993 61.452,150.096 61.788,150.155 61.833 C 150.214 61.879,150.356 62.476,150.470 63.160 C 150.584 63.844,150.747 64.447,150.832 64.499 C 150.916 64.551,151.072 65.154,151.178 65.839 C 151.284 66.523,151.425 67.121,151.491 67.167 C 151.557 67.212,151.770 67.962,151.964 68.833 C 152.523 71.349,152.909 72.903,153.017 73.083 C 153.072 73.175,153.213 73.719,153.331 74.292 L 153.546 75.333 155.622 75.333 C 157.558 75.333,157.704 75.311,157.785 75.000 C 157.833 74.817,157.929 74.667,157.998 74.667 C 158.067 74.667,158.215 74.198,158.327 73.625 C 158.440 73.052,158.602 72.498,158.687 72.393 C 158.773 72.289,158.958 71.653,159.099 70.980 C 159.239 70.308,159.413 69.718,159.486 69.670 C 159.559 69.622,159.711 69.171,159.824 68.667 C 159.937 68.162,160.135 67.514,160.265 67.225 C 160.394 66.936,160.500 66.598,160.501 66.475 C 160.502 66.351,160.604 66.056,160.728 65.818 C 160.852 65.580,161.007 65.093,161.074 64.734 C 161.140 64.376,161.297 63.858,161.423 63.583 C 161.549 63.308,161.762 62.596,161.897 62.000 C 162.032 61.404,162.260 60.692,162.404 60.417 C 162.547 60.142,162.665 59.744,162.666 59.533 C 162.666 59.321,162.818 58.816,163.003 58.411 C 163.188 58.005,163.385 57.334,163.442 56.920 C 163.499 56.506,163.596 56.167,163.658 56.167 C 163.720 56.167,163.871 55.773,163.994 55.292 C 164.117 54.810,164.275 54.304,164.345 54.167 C 164.414 54.029,164.601 53.392,164.760 52.750 C 164.918 52.108,165.102 51.508,165.169 51.417 C 165.235 51.325,165.384 50.837,165.500 50.333 C 165.616 49.829,165.772 49.339,165.847 49.243 C 165.922 49.148,166.064 48.698,166.164 48.243 C 166.263 47.789,166.447 47.192,166.572 46.917 C 166.697 46.642,166.896 45.967,167.014 45.417 C 167.133 44.867,167.276 44.379,167.334 44.333 C 167.443 44.247,167.838 42.973,168.292 41.250 C 168.437 40.700,168.615 40.210,168.689 40.160 C 168.762 40.111,168.844 39.811,168.870 39.494 L 168.917 38.917 167.134 38.869 L 165.351 38.822 165.240 39.411 C 165.179 39.735,165.078 40.000,165.016 40.000 C 164.882 40.000,164.500 41.359,164.500 41.836 C 164.500 42.018,164.435 42.167,164.356 42.167 C 164.277 42.167,164.117 42.617,164.000 43.167 C 163.883 43.717,163.740 44.167,163.682 44.167 C 163.624 44.167,163.480 44.671,163.364 45.287 C 163.247 45.903,163.084 46.448,163.001 46.499 C 162.919 46.550,162.729 47.190,162.579 47.921 C 162.428 48.652,162.243 49.273,162.166 49.301 C 162.090 49.329,161.934 49.873,161.820 50.509 C 161.706 51.146,161.562 51.667,161.500 51.667 C 161.438 51.667,161.291 52.098,161.173 52.625 C 161.056 53.152,160.864 53.808,160.748 54.083 C 160.631 54.358,160.481 54.846,160.415 55.167 C 160.349 55.487,160.241 55.825,160.175 55.917 C 160.109 56.008,159.960 56.533,159.844 57.083 C 159.728 57.633,159.534 58.308,159.414 58.583 C 159.294 58.858,159.104 59.488,158.992 59.982 C 158.880 60.477,158.692 61.068,158.574 61.296 C 158.455 61.524,158.306 62.094,158.242 62.563 C 158.179 63.033,158.074 63.454,158.010 63.500 C 157.946 63.546,157.612 64.596,157.268 65.833 C 156.923 67.071,156.578 68.233,156.499 68.417 C 156.421 68.600,156.269 69.144,156.162 69.626 C 155.897 70.811,155.755 70.828,155.507 69.703 C 155.391 69.179,155.231 68.669,155.152 68.570 C 155.072 68.472,154.928 67.837,154.833 67.161 C 154.737 66.485,154.599 65.890,154.527 65.841 C 154.403 65.754,154.155 64.708,153.914 63.250 C 153.853 62.883,153.745 62.508,153.673 62.417 C 153.602 62.325,153.450 61.725,153.336 61.083 C 153.222 60.442,153.068 59.767,152.993 59.583 C 152.918 59.400,152.765 58.837,152.653 58.333 C 152.540 57.829,152.391 57.304,152.321 57.167 C 152.251 57.029,152.106 56.373,151.998 55.708 C 151.891 55.044,151.744 54.500,151.671 54.500 C 151.598 54.500,151.449 53.881,151.339 53.125 C 151.229 52.369,151.036 51.525,150.910 51.250 C 150.784 50.975,150.593 50.225,150.486 49.583 C 150.380 48.942,150.234 48.342,150.162 48.250 C 150.090 48.158,149.944 47.596,149.838 47.000 C 149.732 46.404,149.586 45.804,149.515 45.667 C 149.443 45.529,149.284 44.910,149.162 44.292 C 149.039 43.673,148.878 43.167,148.803 43.167 C 148.728 43.167,148.666 42.960,148.666 42.708 C 148.665 42.456,148.598 41.987,148.515 41.667 C 148.433 41.346,148.319 40.875,148.262 40.620 L 148.158 40.157 146.039 40.203 C 144.072 40.247,143.916 40.274,143.858 40.583 C 143.823 40.767,143.730 40.958,143.650 41.008 C 143.571 41.058,143.423 41.695,143.322 42.424 C 143.220 43.152,143.081 43.786,143.012 43.832 C 142.840 43.948,142.500 45.372,142.500 45.977 C 142.500 46.249,142.442 46.497,142.371 46.528 C 142.231 46.588,141.848 48.028,141.317 50.497 C 141.130 51.366,140.922 52.116,140.854 52.164 C 140.786 52.211,140.639 52.850,140.528 53.583 C 140.417 54.317,140.258 54.940,140.176 54.968 C 140.094 54.996,139.939 55.558,139.830 56.218 C 139.722 56.877,139.567 57.567,139.485 57.750 C 139.264 58.246,138.839 60.183,138.836 60.708 C 138.834 60.960,138.769 61.167,138.689 61.167 C 138.610 61.167,138.454 61.635,138.341 62.208 C 138.229 62.781,138.076 63.400,138.002 63.583 C 137.928 63.767,137.776 64.367,137.665 64.917 C 137.554 65.467,137.405 65.992,137.334 66.083 C 137.263 66.175,137.113 66.813,137.000 67.500 C 136.887 68.188,136.730 68.831,136.651 68.930 C 136.572 69.029,136.449 69.382,136.378 69.716 C 136.180 70.654,135.890 70.263,135.567 68.621 C 135.410 67.821,135.228 67.167,135.163 67.167 C 135.099 67.167,134.949 66.698,134.831 66.125 C 134.713 65.552,134.561 65.008,134.494 64.917 C 134.426 64.825,134.275 64.319,134.159 63.792 C 134.042 63.265,133.884 62.833,133.807 62.833 C 133.730 62.833,133.667 62.642,133.667 62.407 C 133.667 61.809,133.320 60.500,133.162 60.500 C 133.089 60.500,132.943 59.986,132.838 59.359 C 132.732 58.731,132.539 58.012,132.408 57.761 C 132.278 57.510,132.088 56.823,131.985 56.235 C 131.883 55.648,131.744 55.167,131.676 55.167 C 131.608 55.167,131.462 54.735,131.351 54.208 C 131.240 53.681,131.080 53.100,130.996 52.917 C 130.912 52.733,130.686 51.983,130.494 51.250 C 129.724 48.319,129.608 47.913,129.509 47.833 C 129.453 47.788,129.316 47.300,129.204 46.750 C 129.092 46.200,128.930 45.727,128.844 45.698 C 128.758 45.669,128.598 45.088,128.488 44.406 C 128.378 43.724,128.234 43.167,128.168 43.167 C 128.102 43.167,127.916 42.548,127.755 41.792 C 127.593 41.035,127.401 40.342,127.329 40.250 C 127.256 40.158,127.144 39.802,127.080 39.458 L 126.963 38.833 125.060 38.833 C 123.514 38.833,123.138 38.881,123.059 39.085 M227.050 39.042 C 226.963 39.156,226.795 39.587,226.677 39.999 C 226.559 40.410,226.358 40.896,226.231 41.077 C 226.104 41.259,226.000 41.539,226.000 41.699 C 226.000 41.859,225.821 42.386,225.602 42.870 C 225.383 43.354,225.149 44.008,225.082 44.324 C 225.014 44.640,224.856 45.001,224.730 45.127 C 224.603 45.254,224.453 45.652,224.395 46.012 C 224.338 46.372,224.237 46.667,224.172 46.667 C 224.107 46.667,223.953 46.985,223.830 47.375 C 223.707 47.765,223.553 48.158,223.487 48.250 C 223.421 48.342,223.248 48.820,223.103 49.313 C 222.958 49.806,222.774 50.294,222.695 50.396 C 222.616 50.499,222.455 50.940,222.338 51.375 C 222.220 51.810,222.061 52.167,221.986 52.167 C 221.910 52.167,221.799 52.448,221.739 52.792 C 221.679 53.135,221.537 53.567,221.423 53.750 C 221.310 53.933,221.124 54.383,221.011 54.750 C 220.897 55.117,220.654 55.749,220.470 56.156 C 220.286 56.563,220.095 57.144,220.046 57.448 C 219.997 57.752,219.903 58.000,219.838 58.000 C 219.773 58.000,219.617 58.319,219.492 58.708 C 219.367 59.098,219.217 59.454,219.159 59.500 C 219.101 59.546,218.961 59.957,218.848 60.414 C 218.735 60.872,218.572 61.289,218.487 61.342 C 218.401 61.394,218.216 61.880,218.075 62.422 C 217.934 62.963,217.755 63.446,217.677 63.495 C 217.598 63.543,217.444 63.921,217.334 64.333 C 217.224 64.746,217.076 65.158,217.005 65.250 C 216.935 65.342,216.785 65.717,216.672 66.083 C 216.559 66.450,216.334 67.050,216.172 67.417 C 215.524 68.884,215.371 69.282,215.168 70.042 C 215.052 70.477,214.895 70.833,214.819 70.833 C 214.744 70.833,214.632 71.115,214.571 71.458 C 214.509 71.802,214.327 72.308,214.164 72.583 C 214.002 72.858,213.814 73.346,213.747 73.667 C 213.680 73.987,213.565 74.288,213.492 74.335 C 213.419 74.382,213.308 74.626,213.245 74.877 L 213.131 75.333 214.894 75.333 L 216.658 75.333 216.971 74.625 C 217.143 74.235,217.380 73.560,217.497 73.125 C 217.614 72.690,217.772 72.333,217.847 72.333 C 217.923 72.333,218.034 72.052,218.094 71.708 C 218.155 71.365,218.297 70.933,218.410 70.750 C 218.523 70.567,218.709 70.117,218.822 69.750 C 218.936 69.383,219.131 68.855,219.256 68.576 C 219.381 68.297,219.577 67.716,219.693 67.285 C 219.808 66.853,219.954 66.500,220.016 66.500 C 220.078 66.500,220.176 66.254,220.232 65.953 C 220.289 65.652,220.451 65.239,220.594 65.036 L 220.852 64.667 229.003 64.667 L 237.153 64.667 237.359 65.375 C 237.472 65.765,237.655 66.233,237.766 66.417 C 237.877 66.600,238.018 66.994,238.080 67.292 C 238.142 67.590,238.262 67.833,238.347 67.833 C 238.431 67.833,238.500 67.974,238.500 68.146 C 238.500 68.423,238.685 68.969,239.156 70.083 C 239.233 70.267,239.383 70.735,239.488 71.125 C 239.594 71.515,239.744 71.833,239.821 71.833 C 239.899 71.833,240.015 72.115,240.080 72.458 C 240.144 72.802,240.377 73.479,240.598 73.963 C 240.819 74.447,241.000 74.953,241.000 75.088 C 241.000 75.289,241.331 75.333,242.833 75.333 C 244.926 75.333,245.013 75.250,244.331 73.911 C 244.146 73.549,243.873 72.820,243.725 72.293 C 243.577 71.765,243.400 71.333,243.331 71.333 C 243.262 71.333,243.118 70.984,243.011 70.557 C 242.903 70.130,242.707 69.626,242.574 69.437 C 242.442 69.247,242.333 68.989,242.333 68.863 C 242.333 68.737,242.227 68.397,242.098 68.109 C 241.968 67.820,241.775 67.302,241.668 66.958 C 241.561 66.615,241.417 66.333,241.347 66.333 C 241.277 66.333,241.127 65.921,241.015 65.417 C 240.902 64.912,240.714 64.404,240.597 64.287 C 240.480 64.171,240.332 63.795,240.268 63.452 C 240.203 63.109,239.967 62.463,239.742 62.015 C 239.517 61.568,239.333 61.097,239.333 60.969 C 239.333 60.842,239.183 60.443,239.000 60.083 C 238.817 59.724,238.667 59.295,238.667 59.131 C 238.667 58.967,238.608 58.833,238.536 58.833 C 238.465 58.833,238.305 58.477,238.182 58.042 C 238.059 57.606,237.866 57.100,237.754 56.917 C 237.642 56.733,237.499 56.304,237.435 55.964 C 237.372 55.623,237.224 55.248,237.107 55.130 C 236.990 55.013,236.799 54.543,236.684 54.086 C 236.569 53.628,236.410 53.214,236.330 53.165 C 236.251 53.116,236.089 52.702,235.971 52.246 C 235.852 51.790,235.713 51.379,235.661 51.333 C 235.609 51.288,235.432 50.875,235.267 50.417 C 235.103 49.958,234.871 49.358,234.753 49.083 C 234.634 48.808,234.482 48.396,234.415 48.167 C 234.348 47.938,234.238 47.675,234.172 47.583 C 234.106 47.492,233.955 47.060,233.838 46.625 C 233.720 46.190,233.564 45.833,233.492 45.833 C 233.419 45.833,233.310 45.590,233.250 45.292 C 233.087 44.494,232.783 43.667,232.652 43.667 C 232.589 43.667,232.484 43.385,232.420 43.042 C 232.356 42.698,232.122 42.034,231.902 41.567 C 231.681 41.100,231.500 40.630,231.500 40.523 C 231.500 40.416,231.425 40.199,231.333 40.039 C 231.242 39.880,231.094 39.544,231.004 39.292 L 230.842 38.833 229.025 38.833 C 227.766 38.833,227.159 38.897,227.050 39.042 M109.121 44.175 C 109.230 44.634,109.435 45.125,109.576 45.267 C 109.718 45.408,109.833 45.682,109.833 45.875 C 109.833 46.313,110.194 47.333,110.348 47.333 C 110.411 47.333,110.516 47.615,110.580 47.958 C 110.644 48.302,110.878 48.966,111.098 49.433 C 111.319 49.900,111.500 50.444,111.500 50.641 C 111.500 50.838,111.565 51.000,111.645 51.000 C 111.725 51.000,111.885 51.337,112.000 51.750 C 112.115 52.163,112.275 52.500,112.355 52.500 C 112.435 52.500,112.500 52.637,112.500 52.804 C 112.500 53.238,113.007 54.667,113.161 54.667 C 113.232 54.667,113.331 54.919,113.381 55.228 C 113.431 55.537,113.628 56.133,113.819 56.553 C 114.010 56.972,114.169 57.413,114.172 57.533 C 114.175 57.652,114.362 58.125,114.587 58.583 C 114.812 59.042,115.000 59.529,115.004 59.667 C 115.008 59.804,115.156 60.217,115.333 60.583 C 115.510 60.950,115.658 61.306,115.661 61.375 C 115.664 61.444,112.517 61.500,108.667 61.500 C 104.111 61.500,101.667 61.442,101.667 61.333 C 101.667 61.242,101.742 61.167,101.833 61.167 C 101.925 61.167,102.000 61.009,102.000 60.816 C 102.000 60.623,102.176 60.115,102.391 59.686 C 102.606 59.258,102.837 58.618,102.903 58.263 C 102.970 57.909,103.131 57.512,103.262 57.381 C 103.393 57.250,103.547 56.848,103.605 56.488 C 103.662 56.128,103.761 55.833,103.824 55.833 C 103.887 55.833,104.071 55.402,104.231 54.875 C 104.545 53.847,105.167 52.190,105.342 51.917 C 105.400 51.825,105.545 51.394,105.662 50.958 C 105.780 50.523,105.934 50.167,106.005 50.167 C 106.076 50.167,106.227 49.773,106.342 49.292 C 106.457 48.810,106.685 48.154,106.848 47.833 C 107.012 47.512,107.196 46.969,107.258 46.625 C 107.320 46.281,107.425 46.000,107.492 46.000 C 107.559 46.000,107.708 45.681,107.824 45.292 C 107.939 44.902,108.139 44.384,108.267 44.141 C 108.395 43.898,108.500 43.581,108.500 43.438 C 108.500 42.872,108.934 43.387,109.121 44.175 M229.152 43.667 C 229.223 43.667,229.373 44.079,229.485 44.583 C 229.598 45.087,229.750 45.500,229.824 45.500 C 229.897 45.500,230.053 45.856,230.171 46.292 C 230.289 46.727,230.436 47.158,230.498 47.250 C 230.560 47.342,230.894 48.223,231.240 49.208 C 231.586 50.194,231.927 51.000,231.997 51.000 C 232.067 51.000,232.170 51.281,232.225 51.625 C 232.281 51.969,232.473 52.521,232.652 52.852 C 232.830 53.184,233.028 53.727,233.090 54.061 C 233.153 54.394,233.259 54.667,233.325 54.667 C 233.392 54.667,233.585 55.135,233.753 55.708 C 233.921 56.281,234.111 56.825,234.174 56.917 C 234.238 57.008,234.384 57.383,234.498 57.750 C 234.613 58.117,234.773 58.488,234.853 58.575 C 234.934 58.662,235.000 58.829,235.000 58.945 C 235.000 59.062,235.188 59.567,235.417 60.068 C 236.133 61.635,236.753 61.500,228.833 61.500 C 224.983 61.500,221.833 61.457,221.833 61.405 C 221.833 61.352,221.940 61.202,222.071 61.071 C 222.202 60.941,222.402 60.421,222.515 59.917 C 222.627 59.413,222.773 59.000,222.838 59.000 C 222.903 59.000,223.052 58.661,223.168 58.246 C 223.284 57.831,223.444 57.451,223.523 57.403 C 223.602 57.354,223.667 57.184,223.667 57.025 C 223.667 56.867,223.810 56.457,223.985 56.114 C 224.159 55.771,224.392 55.117,224.501 54.662 C 224.610 54.206,224.758 53.833,224.828 53.833 C 224.898 53.833,225.082 53.386,225.235 52.839 C 225.389 52.292,225.623 51.635,225.756 51.380 C 225.889 51.125,226.047 50.654,226.106 50.333 C 226.166 50.012,226.279 49.708,226.357 49.657 C 226.436 49.605,226.773 48.780,227.106 47.823 C 227.439 46.866,227.764 46.008,227.830 45.917 C 227.895 45.825,228.045 45.394,228.162 44.958 C 228.280 44.523,228.436 44.167,228.508 44.167 C 228.581 44.167,228.698 43.923,228.768 43.625 C 228.851 43.271,228.918 43.185,228.960 43.375 C 228.995 43.535,229.082 43.667,229.152 43.667 M259.668 48.114 C 259.348 48.158,259.048 48.246,259.001 48.311 C 258.955 48.375,258.504 48.526,258.000 48.647 C 257.028 48.880,254.104 50.206,253.724 50.586 C 253.600 50.710,253.348 50.859,253.166 50.917 C 252.983 50.975,252.833 51.092,252.833 51.178 C 252.833 51.918,252.503 51.061,252.411 50.083 L 252.294 48.833 250.730 48.833 L 249.167 48.833 249.167 62.083 L 249.167 75.333 250.833 75.333 L 252.500 75.333 252.500 64.828 L 252.500 54.322 253.083 53.978 C 253.404 53.789,253.667 53.566,253.667 53.484 C 253.667 53.401,253.780 53.333,253.919 53.333 C 254.175 53.333,254.711 53.072,255.167 52.727 C 255.304 52.623,255.661 52.485,255.960 52.422 C 256.259 52.358,256.608 52.202,256.736 52.074 C 256.864 51.946,257.519 51.757,258.192 51.655 C 258.866 51.553,259.488 51.401,259.575 51.318 C 259.781 51.121,262.952 51.120,263.073 51.317 C 263.124 51.399,263.541 51.557,263.999 51.667 C 264.458 51.777,264.833 51.922,264.833 51.991 C 264.833 52.059,265.022 52.333,265.253 52.599 C 265.483 52.865,265.754 53.383,265.853 53.750 C 265.953 54.117,266.120 54.470,266.226 54.536 C 266.365 54.622,266.430 57.447,266.465 64.994 L 266.514 75.333 268.257 75.333 L 270.000 75.333 270.000 65.033 C 270.000 57.244,269.951 54.685,269.800 54.533 C 269.644 54.378,269.644 54.333,269.800 54.333 C 269.910 54.333,270.145 54.202,270.321 54.042 C 270.867 53.547,271.059 53.423,271.792 53.098 C 272.181 52.924,272.500 52.728,272.500 52.662 C 272.500 52.596,272.725 52.497,273.000 52.442 C 273.275 52.387,273.819 52.199,274.208 52.024 C 274.598 51.850,275.347 51.655,275.872 51.592 C 276.398 51.528,276.871 51.407,276.924 51.322 C 277.046 51.124,280.500 51.117,280.500 51.315 C 280.500 51.396,280.759 51.511,281.075 51.571 C 281.596 51.668,281.941 51.950,283.006 53.142 C 283.632 53.843,283.721 55.249,283.790 65.458 L 283.857 75.333 285.518 75.333 L 287.180 75.333 287.132 64.192 C 287.097 56.288,287.029 52.983,286.897 52.817 C 286.794 52.689,286.620 52.302,286.509 51.958 C 286.398 51.615,286.238 51.333,286.154 51.333 C 286.069 51.333,286.000 51.219,286.000 51.080 C 286.000 50.453,283.546 48.500,282.758 48.500 C 282.631 48.500,282.497 48.406,282.458 48.292 C 282.367 48.018,276.669 47.992,276.317 48.264 C 276.189 48.364,275.566 48.581,274.934 48.748 C 273.775 49.053,271.283 50.193,270.868 50.609 C 270.744 50.732,270.539 50.833,270.413 50.833 C 270.287 50.833,270.123 50.927,270.050 51.042 C 269.902 51.273,269.254 51.667,269.022 51.667 C 268.941 51.667,268.781 51.442,268.667 51.167 C 268.553 50.892,268.402 50.667,268.333 50.667 C 268.263 50.667,268.166 50.517,268.118 50.333 C 268.070 50.150,267.912 50.000,267.766 50.000 C 267.620 50.000,267.500 49.915,267.500 49.810 C 267.500 49.484,265.921 48.500,265.399 48.500 C 265.287 48.500,265.165 48.411,265.129 48.303 C 265.060 48.097,260.847 47.951,259.668 48.114 M304.792 48.112 C 304.448 48.153,304.167 48.257,304.167 48.343 C 304.167 48.430,304.077 48.500,303.967 48.500 C 303.601 48.500,301.833 49.072,301.833 49.190 C 301.833 49.254,301.603 49.357,301.322 49.419 C 301.041 49.481,300.770 49.637,300.721 49.766 C 300.671 49.895,300.515 50.000,300.373 50.000 C 300.231 50.000,299.883 50.174,299.599 50.387 C 299.315 50.600,298.952 50.823,298.792 50.882 C 298.631 50.941,298.494 51.086,298.487 51.203 C 298.458 51.703,298.024 50.186,298.013 49.542 L 298.000 48.833 296.417 48.833 L 294.833 48.833 294.833 67.589 L 294.833 86.345 296.542 86.297 L 298.250 86.250 298.333 79.537 L 298.417 72.825 299.000 73.333 C 299.909 74.125,299.940 74.145,300.657 74.432 C 301.029 74.581,301.333 74.760,301.333 74.830 C 301.333 74.900,301.690 75.053,302.125 75.171 C 302.560 75.289,302.992 75.440,303.083 75.508 C 303.982 76.170,310.667 76.163,310.667 75.500 C 310.667 75.432,310.963 75.329,311.325 75.271 C 311.688 75.213,312.044 75.067,312.117 74.948 C 312.190 74.828,312.494 74.632,312.793 74.511 C 313.300 74.306,315.667 72.176,315.667 71.925 C 315.667 71.862,315.854 71.565,316.083 71.265 C 316.313 70.964,316.500 70.632,316.500 70.526 C 316.500 70.420,316.571 70.333,316.658 70.333 C 316.745 70.333,316.946 69.921,317.105 69.417 C 317.264 68.912,317.449 68.500,317.515 68.500 C 317.582 68.500,317.728 67.956,317.839 67.292 C 317.950 66.627,318.111 66.039,318.195 65.985 C 318.597 65.729,318.609 58.134,318.209 57.622 C 318.120 57.509,317.956 56.938,317.844 56.352 C 317.732 55.767,317.576 55.167,317.497 55.019 C 317.418 54.871,317.109 54.236,316.812 53.608 C 316.514 52.979,316.172 52.428,316.052 52.382 C 315.932 52.335,315.833 52.194,315.833 52.067 C 315.833 51.940,315.683 51.742,315.500 51.628 C 315.317 51.513,315.167 51.324,315.167 51.206 C 315.167 51.089,314.979 50.907,314.750 50.803 C 314.521 50.699,314.333 50.557,314.333 50.487 C 314.333 50.246,312.690 49.158,311.807 48.816 C 311.317 48.625,310.767 48.388,310.583 48.287 C 310.245 48.101,305.958 47.972,304.792 48.112 M338.167 62.083 L 338.167 75.333 339.833 75.333 L 341.500 75.333 341.500 62.083 L 341.500 48.833 339.833 48.833 L 338.167 48.833 338.167 62.083 M365.500 49.084 C 365.500 49.222,365.650 49.614,365.833 49.956 C 366.017 50.299,366.167 50.694,366.167 50.835 C 366.167 50.977,366.268 51.240,366.393 51.421 C 366.517 51.602,366.715 52.050,366.831 52.417 C 366.948 52.783,367.096 53.158,367.160 53.250 C 367.224 53.342,367.408 53.792,367.569 54.250 C 367.866 55.096,368.029 55.491,368.637 56.833 C 368.824 57.246,369.028 57.790,369.090 58.042 C 369.152 58.294,369.262 58.500,369.335 58.500 C 369.407 58.500,369.557 58.875,369.667 59.333 C 369.777 59.792,369.926 60.167,369.998 60.167 C 370.070 60.167,370.262 60.654,370.423 61.250 C 370.584 61.846,370.773 62.333,370.843 62.333 C 370.912 62.333,371.065 62.708,371.183 63.167 C 371.300 63.625,371.457 64.000,371.532 64.000 C 371.606 64.000,371.667 64.089,371.667 64.197 C 371.667 64.306,371.809 64.700,371.983 65.072 C 372.158 65.445,372.394 66.048,372.509 66.412 C 372.623 66.776,372.818 67.175,372.942 67.299 C 373.065 67.423,373.167 67.695,373.167 67.904 C 373.167 68.113,373.354 68.636,373.583 69.067 C 373.813 69.498,374.000 69.953,374.000 70.078 C 374.000 70.204,374.188 70.679,374.417 71.136 C 374.646 71.592,374.833 72.070,374.833 72.199 C 374.833 72.328,374.898 72.505,374.978 72.592 C 375.058 72.679,375.261 73.125,375.430 73.583 C 375.599 74.042,375.833 74.604,375.951 74.833 C 376.220 75.357,376.220 75.641,375.952 76.167 C 375.836 76.396,375.595 77.015,375.419 77.542 C 375.242 78.069,375.047 78.500,374.984 78.500 C 374.922 78.500,374.818 78.781,374.754 79.125 C 374.691 79.469,374.545 79.862,374.430 80.000 C 374.315 80.137,374.120 80.512,373.996 80.833 C 373.871 81.154,373.671 81.477,373.551 81.550 C 373.431 81.623,373.333 81.783,373.333 81.905 C 373.333 82.181,372.343 83.167,372.066 83.167 C 371.953 83.167,371.836 83.243,371.805 83.335 C 371.745 83.516,369.956 83.860,369.619 83.756 C 369.508 83.721,368.835 83.647,368.125 83.590 L 366.833 83.486 366.833 84.892 C 366.833 86.479,366.783 86.419,368.333 86.694 C 370.004 86.992,370.859 87.041,371.049 86.851 C 371.151 86.749,371.507 86.667,371.842 86.667 C 372.520 86.667,373.500 86.372,373.500 86.168 C 373.500 86.096,373.674 85.992,373.888 85.939 C 374.927 85.678,377.128 82.500,377.675 80.471 C 377.776 80.093,377.963 79.680,378.090 79.553 C 378.217 79.426,378.372 79.044,378.434 78.703 C 378.497 78.362,378.601 78.046,378.665 78.000 C 378.730 77.954,379.027 77.279,379.325 76.500 C 379.623 75.721,379.925 75.008,379.996 74.917 C 380.068 74.825,380.250 74.319,380.401 73.792 C 380.552 73.265,380.736 72.833,380.809 72.833 C 380.883 72.833,381.031 72.453,381.138 71.988 C 381.245 71.524,381.443 71.034,381.577 70.900 C 381.711 70.766,381.872 70.377,381.934 70.036 C 381.997 69.696,382.099 69.379,382.161 69.333 C 382.342 69.199,382.833 67.857,382.833 67.497 C 382.833 67.315,382.908 67.167,383.000 67.167 C 383.092 67.167,383.167 67.091,383.167 66.998 C 383.167 66.906,383.310 66.512,383.485 66.123 C 383.661 65.735,383.897 65.119,384.011 64.755 C 384.124 64.390,384.308 64.002,384.419 63.891 C 384.530 63.780,384.669 63.384,384.729 63.011 C 384.788 62.638,384.900 62.333,384.977 62.333 C 385.121 62.333,385.667 60.803,385.667 60.398 C 385.667 60.271,385.727 60.167,385.800 60.167 C 385.873 60.167,386.028 59.885,386.144 59.542 C 386.378 58.849,386.456 58.660,387.051 57.333 C 387.277 56.829,387.514 56.173,387.578 55.875 C 387.641 55.577,387.750 55.333,387.820 55.333 C 387.890 55.333,388.087 54.865,388.257 54.292 C 388.428 53.719,388.616 53.212,388.676 53.167 C 388.736 53.121,388.881 52.783,388.998 52.417 C 389.114 52.050,389.266 51.675,389.333 51.583 C 389.401 51.492,389.552 51.117,389.669 50.750 C 389.785 50.383,389.983 49.935,390.107 49.755 C 390.665 48.945,390.476 48.833,388.541 48.833 L 386.748 48.833 386.547 49.292 C 386.436 49.544,386.219 50.144,386.064 50.625 C 385.909 51.106,385.727 51.500,385.660 51.500 C 385.592 51.500,385.486 51.781,385.423 52.125 C 385.360 52.469,385.213 52.900,385.096 53.083 C 384.979 53.267,384.791 53.717,384.677 54.083 C 384.564 54.450,384.339 55.050,384.177 55.417 C 384.015 55.783,383.674 56.646,383.419 57.333 C 383.164 58.021,382.890 58.655,382.811 58.742 C 382.732 58.829,382.666 59.016,382.665 59.158 C 382.664 59.300,382.479 59.792,382.254 60.250 C 382.028 60.708,381.841 61.197,381.839 61.336 C 381.836 61.475,381.685 61.864,381.505 62.201 C 381.324 62.538,381.087 63.175,380.978 63.615 C 380.869 64.056,380.721 64.456,380.649 64.504 C 380.577 64.552,380.422 64.965,380.303 65.421 C 380.184 65.877,379.998 66.343,379.890 66.457 C 379.782 66.570,379.645 66.888,379.584 67.163 C 379.524 67.438,379.405 67.706,379.321 67.758 C 379.236 67.810,379.167 67.962,379.167 68.095 C 379.167 68.228,379.018 68.655,378.837 69.043 C 378.655 69.432,378.367 70.193,378.197 70.735 L 377.887 71.721 377.683 70.912 C 377.571 70.466,377.339 69.795,377.168 69.420 C 376.997 69.045,376.803 68.516,376.737 68.244 C 376.670 67.972,376.566 67.712,376.507 67.667 C 376.447 67.621,376.224 67.096,376.011 66.500 C 375.798 65.904,375.490 65.117,375.327 64.750 C 375.163 64.383,374.905 63.690,374.752 63.210 C 374.599 62.730,374.414 62.300,374.339 62.254 C 374.265 62.208,374.152 61.888,374.088 61.544 C 374.024 61.199,373.835 60.692,373.667 60.417 C 373.499 60.142,373.309 59.635,373.245 59.292 C 373.182 58.948,373.073 58.667,373.004 58.667 C 372.935 58.667,372.749 58.235,372.591 57.708 C 372.432 57.181,372.197 56.514,372.068 56.225 C 371.939 55.936,371.833 55.623,371.833 55.528 C 371.833 55.434,371.739 55.258,371.623 55.137 C 371.508 55.016,371.316 54.543,371.197 54.087 C 371.078 53.631,370.922 53.219,370.850 53.171 C 370.777 53.123,370.663 52.861,370.597 52.589 C 370.530 52.317,370.337 51.790,370.167 51.417 C 369.997 51.044,369.805 50.516,369.740 50.244 C 369.421 48.913,369.284 48.833,367.297 48.833 C 365.809 48.833,365.500 48.876,365.500 49.084 M308.569 51.311 C 308.618 51.390,309.110 51.544,309.663 51.653 C 310.215 51.761,310.667 51.903,310.667 51.968 C 310.667 52.032,310.898 52.188,311.182 52.313 C 311.868 52.617,312.711 53.480,313.275 54.455 C 313.527 54.892,313.785 55.288,313.848 55.333 C 313.910 55.379,314.054 55.867,314.167 56.417 C 314.280 56.967,314.432 57.455,314.505 57.501 C 315.108 57.884,315.113 66.114,314.509 66.496 C 314.434 66.544,314.283 67.015,314.174 67.542 C 314.065 68.069,313.913 68.500,313.834 68.500 C 313.756 68.500,313.610 68.751,313.508 69.059 C 313.407 69.366,313.138 69.792,312.912 70.005 C 312.685 70.217,312.500 70.491,312.500 70.612 C 312.500 70.734,312.406 70.835,312.292 70.836 C 312.177 70.838,311.912 71.020,311.702 71.241 C 310.580 72.425,306.813 73.205,304.734 72.684 C 304.330 72.583,303.644 72.414,303.208 72.308 C 302.773 72.202,302.304 72.027,302.167 71.919 C 302.029 71.810,301.673 71.625,301.375 71.507 C 301.077 71.389,300.833 71.234,300.833 71.163 C 300.833 71.091,300.608 70.954,300.333 70.858 C 300.058 70.762,299.833 70.610,299.833 70.520 C 299.833 70.430,299.681 70.307,299.495 70.248 C 299.309 70.189,298.971 69.941,298.745 69.697 L 298.333 69.253 298.333 61.830 L 298.333 54.407 298.694 54.162 C 298.893 54.027,299.180 53.804,299.332 53.667 C 299.485 53.529,300.016 53.220,300.513 52.979 C 301.010 52.738,301.792 52.354,302.250 52.126 C 302.708 51.898,303.515 51.659,304.042 51.594 C 304.569 51.529,305.000 51.406,305.000 51.321 C 305.000 51.126,308.449 51.116,308.569 51.311 " stroke="none" fill="#3c3c3c" fill-rule="evenodd"></path><path id="path2" d="M26.667 57.583 C 26.667 57.725,26.517 57.833,26.323 57.833 C 26.095 57.833,26.021 57.764,26.102 57.625 C 26.169 57.510,26.074 57.548,25.890 57.709 C 25.707 57.869,25.506 57.963,25.445 57.917 C 25.383 57.871,25.377 57.890,25.431 57.958 C 25.484 58.027,25.609 58.083,25.708 58.083 C 25.808 58.083,25.923 58.184,25.964 58.308 C 26.024 58.489,25.968 58.495,25.672 58.336 C 25.470 58.228,25.292 58.164,25.277 58.195 C 25.262 58.225,25.156 58.400,25.041 58.583 C 24.925 58.767,24.700 59.179,24.541 59.500 C 24.381 59.821,24.209 60.121,24.159 60.167 C 24.110 60.212,23.627 61.038,23.086 62.000 C 22.545 62.962,22.005 63.849,21.885 63.970 C 21.765 64.091,21.667 64.286,21.667 64.403 C 21.667 64.520,21.521 64.783,21.344 64.988 C 21.166 65.193,20.972 65.580,20.914 65.847 C 20.855 66.114,20.741 66.333,20.661 66.333 C 20.581 66.333,20.385 66.615,20.225 66.958 C 20.065 67.302,19.885 67.621,19.826 67.667 C 19.721 67.747,19.516 68.116,18.898 69.333 C 18.735 69.654,18.504 69.977,18.384 70.050 C 18.264 70.123,18.167 70.304,18.167 70.451 C 18.167 70.598,17.995 70.951,17.786 71.234 C 17.577 71.518,17.309 71.938,17.192 72.167 C 17.074 72.396,16.850 72.808,16.694 73.083 C 16.538 73.358,16.079 74.183,15.675 74.917 C 15.271 75.650,14.874 76.295,14.793 76.350 C 14.711 76.405,14.628 76.560,14.609 76.694 C 14.589 76.828,14.406 77.150,14.203 77.408 C 14.000 77.667,13.833 77.969,13.833 78.080 C 13.833 78.191,13.681 78.458,13.495 78.672 C 13.310 78.886,13.114 79.235,13.061 79.447 C 13.007 79.660,12.911 79.833,12.847 79.833 C 12.783 79.833,12.590 80.152,12.419 80.542 C 12.247 80.931,12.007 81.349,11.886 81.470 C 11.766 81.591,11.667 81.794,11.667 81.920 C 11.667 82.047,11.573 82.210,11.458 82.283 C 11.344 82.357,10.987 82.936,10.667 83.570 C 10.346 84.204,9.952 84.861,9.792 85.028 C 9.631 85.196,9.501 85.465,9.503 85.625 C 9.504 85.793,9.557 85.844,9.628 85.747 C 9.695 85.653,9.938 85.494,10.167 85.394 C 10.543 85.229,16.378 81.890,22.914 78.100 C 24.288 77.303,25.488 76.529,25.581 76.380 C 25.908 75.856,26.263 75.237,26.991 73.917 C 27.395 73.183,27.776 72.546,27.837 72.500 C 27.963 72.406,28.353 71.703,28.763 70.833 C 28.914 70.512,29.085 70.212,29.144 70.167 C 29.345 70.009,29.667 69.337,29.667 69.076 C 29.667 68.932,29.731 68.854,29.810 68.902 C 29.889 68.951,30.092 68.655,30.261 68.245 C 30.430 67.835,30.626 67.500,30.696 67.500 C 30.766 67.500,30.890 67.256,30.971 66.958 C 31.052 66.660,31.210 66.437,31.322 66.462 C 31.433 66.488,31.477 66.431,31.418 66.336 C 31.360 66.242,31.411 66.055,31.531 65.921 C 32.049 65.347,32.172 65.167,32.048 65.164 C 31.976 65.163,32.000 65.106,32.103 65.039 C 32.205 64.972,32.346 64.733,32.416 64.508 C 32.537 64.123,32.527 64.115,32.260 64.383 C 32.104 64.539,31.944 64.667,31.905 64.667 C 31.753 64.667,31.843 64.347,32.054 64.136 C 32.509 63.681,32.544 62.816,32.103 62.927 C 31.753 63.014,31.702 62.955,31.605 62.346 C 31.525 61.849,31.417 61.667,31.201 61.667 C 31.039 61.667,30.799 61.517,30.667 61.333 C 30.535 61.150,30.332 61.000,30.216 61.000 C 30.101 61.000,29.958 60.809,29.900 60.576 C 29.841 60.343,29.709 60.180,29.607 60.214 C 29.359 60.297,29.115 60.035,28.824 59.375 C 28.693 59.077,28.470 58.833,28.329 58.833 C 28.189 58.833,27.965 58.683,27.833 58.500 C 27.701 58.317,27.499 58.167,27.383 58.167 C 27.268 58.167,27.126 57.979,27.068 57.750 C 26.955 57.298,26.667 57.178,26.667 57.583 M33.053 63.125 C 32.996 63.285,32.837 63.548,32.699 63.708 C 32.561 63.869,32.522 64.000,32.613 64.000 C 32.751 64.000,32.926 63.732,33.294 62.958 C 33.326 62.890,33.309 62.833,33.255 62.833 C 33.200 62.833,33.110 62.965,33.053 63.125 M53.667 83.454 C 53.667 83.551,53.821 83.807,54.010 84.023 L 54.353 84.417 54.060 83.917 C 53.675 83.259,53.667 83.249,53.667 83.454 " stroke="none" fill="#fc8c04" fill-rule="evenodd"></path><path id="path3" d="" stroke="none" fill="#6c8820" fill-rule="evenodd"></path><path id="path4" d="" stroke="none" fill="#703c20" fill-rule="evenodd"></path></g></svg>