<?xml version="1.0" encoding="UTF-8"?>
<!DOCTYPE svg PUBLIC "-//W3C//DTD SVG 1.1//EN" "http://www.w3.org/Graphics/SVG/1.1/DTD/svg11.dtd">
<svg xmlns="http://www.w3.org/2000/svg" version="1.1" width="640px" height="336px" style="shape-rendering:geometricPrecision; text-rendering:geometricPrecision; image-rendering:optimizeQuality; fill-rule:evenodd; clip-rule:evenodd" xmlns:xlink="http://www.w3.org/1999/xlink">
<g><path style="opacity:1" fill="#fefefe" d="M -0.5,-0.5 C 212.833,-0.5 426.167,-0.5 639.5,-0.5C 639.5,111.5 639.5,223.5 639.5,335.5C 426.167,335.5 212.833,335.5 -0.5,335.5C -0.5,223.5 -0.5,111.5 -0.5,-0.5 Z"/></g>
<g><path style="opacity:1" fill="#ee4332" d="M 243.5,121.5 C 243.194,111.75 243.527,102.084 244.5,92.5C 245.251,91.4265 246.251,91.2599 247.5,92C 270.004,105.086 292.671,117.92 315.5,130.5C 336.612,118.044 357.945,106.044 379.5,94.5C 380.487,89.6946 380.821,84.6946 380.5,79.5C 379.209,79.2627 378.209,79.596 377.5,80.5C 356.536,91.6482 335.87,103.315 315.5,115.5C 291.338,102.253 267.338,88.7533 243.5,75C 242.24,73.1862 242.24,71.3529 243.5,69.5C 267.43,56.2863 291.263,42.953 315,29.5C 333.157,39.6502 351.323,49.8169 369.5,60C 370.833,61.3333 370.833,62.6667 369.5,64C 367.635,65.3014 365.635,65.6347 363.5,65C 347.513,55.7581 331.347,46.9248 315,38.5C 295.147,49.1788 275.314,60.0121 255.5,71C 254.289,71.8928 254.289,72.7261 255.5,73.5C 275.43,84.3803 295.263,95.3803 315,106.5C 338,93.8333 361,81.1667 384,68.5C 384.873,68.7355 385.707,69.0688 386.5,69.5C 387.833,79.1667 387.833,88.8333 386.5,98.5C 362.893,112.221 339.06,125.554 315,138.5C 293.659,126.415 272.159,114.748 250.5,103.5C 250.334,108.179 250.501,112.845 251,117.5C 272.187,129.76 293.521,141.76 315,153.5C 338.108,140.697 361.274,128.03 384.5,115.5C 385.442,115.608 386.275,115.941 387,116.5C 387.667,126.167 387.667,135.833 387,145.5C 363.145,159.094 339.145,172.427 315,185.5C 291.102,172.467 267.269,159.301 243.5,146C 241.379,141.431 242.712,139.098 247.5,139C 269.935,151.967 292.435,164.8 315,177.5C 336.157,165.683 357.323,153.85 378.5,142C 379.637,136.918 379.804,131.751 379,126.5C 357.705,138.3 336.538,150.3 315.5,162.5C 291.112,149.312 267.112,135.645 243.5,121.5 Z"/></g>
<g><path style="opacity:1" fill="#f69f97" d="M 377.5,80.5 C 378.209,79.596 379.209,79.2627 380.5,79.5C 380.821,84.6946 380.487,89.6946 379.5,94.5C 380.103,89.3814 379.436,84.7147 377.5,80.5 Z"/></g>
<g><path style="opacity:1" fill="#f06a5d" d="M 244.5,92.5 C 243.527,102.084 243.194,111.75 243.5,121.5C 242.834,116.845 242.501,112.012 242.5,107C 242.506,101.784 243.173,96.951 244.5,92.5 Z"/></g>
<g><path style="opacity:1" fill="#3d3d3d" d="M 128.5,228.5 C 124.833,228.5 121.167,228.5 117.5,228.5C 117.827,238.348 117.494,248.014 116.5,257.5C 116.5,247.5 116.5,237.5 116.5,227.5C 120.702,227.183 124.702,227.517 128.5,228.5 Z"/></g>
<g><path style="opacity:1" fill="#060606" d="M 128.5,228.5 C 128.5,253.833 128.5,279.167 128.5,304.5C 124.5,304.5 120.5,304.5 116.5,304.5C 117.082,297.877 115.416,297.043 111.5,302C 91.3386,310.836 78.172,304.67 72,283.5C 69.8904,268.715 75.3904,258.048 88.5,251.5C 93.1304,250.771 97.7971,250.437 102.5,250.5C 107.756,251.795 112.423,254.128 116.5,257.5C 117.494,248.014 117.827,238.348 117.5,228.5C 121.167,228.5 124.833,228.5 128.5,228.5 Z"/></g>
<g><path style="opacity:1" fill="#090909" d="M 314.5,298.5 C 313.539,300.265 313.205,302.265 313.5,304.5C 309.833,304.5 306.167,304.5 302.5,304.5C 302.5,278.833 302.5,253.167 302.5,227.5C 306.5,227.5 310.5,227.5 314.5,227.5C 314.168,237.522 314.501,247.522 315.5,257.5C 329.787,245.956 342.954,247.29 355,261.5C 362.56,276.83 360.06,290.33 347.5,302C 335.568,308.767 324.568,307.6 314.5,298.5 Z"/></g>
<g><path style="opacity:1" fill="#131313" d="M 406.5,227.5 C 411.219,226.74 414.719,228.407 417,232.5C 417.559,236.553 416.059,239.72 412.5,242C 404.841,242.671 401.674,239.171 403,231.5C 404.376,230.295 405.542,228.962 406.5,227.5 Z"/></g>
<g><path style="opacity:1" fill="#070707" d="M 479.5,228.5 C 483.167,228.5 486.833,228.5 490.5,228.5C 490.171,242.677 490.504,256.677 491.5,270.5C 498.779,264.558 505.779,258.225 512.5,251.5C 517.032,251.182 521.366,251.515 525.5,252.5C 518.521,259.813 511.521,267.146 504.5,274.5C 511.81,284.473 519.476,294.14 527.5,303.5C 523.366,304.485 519.032,304.818 514.5,304.5C 509.531,298.688 504.697,292.688 500,286.5C 498.281,284.443 496.281,282.776 494,281.5C 493.228,281.645 492.561,281.978 492,282.5C 491.5,289.826 491.334,297.159 491.5,304.5C 487.5,304.5 483.5,304.5 479.5,304.5C 479.5,279.167 479.5,253.833 479.5,228.5 Z"/></g>
<g><path style="opacity:1" fill="#3d3d3d" d="M 479.5,228.5 C 483.298,227.517 487.298,227.183 491.5,227.5C 491.5,241.833 491.5,256.167 491.5,270.5C 490.504,256.677 490.171,242.677 490.5,228.5C 486.833,228.5 483.167,228.5 479.5,228.5 Z"/></g>
<g><path style="opacity:1" fill="#090909" d="M 232.5,260.5 C 228.167,260.5 223.833,260.5 219.5,260.5C 219.173,270.015 219.506,279.348 220.5,288.5C 220.375,291.608 221.708,293.608 224.5,294.5C 227.287,295.477 230.287,295.81 233.5,295.5C 233.5,298.5 233.5,301.5 233.5,304.5C 232.209,304.263 231.209,304.596 230.5,305.5C 218.236,308.292 210.736,303.625 208,291.5C 207.5,281.172 207.334,270.839 207.5,260.5C 204.5,260.5 201.5,260.5 198.5,260.5C 198.5,257.5 198.5,254.5 198.5,251.5C 201.5,251.5 204.5,251.5 207.5,251.5C 207.5,245.833 207.5,240.167 207.5,234.5C 211.5,234.5 215.5,234.5 219.5,234.5C 219.334,239.844 219.501,245.177 220,250.5C 224.066,251.464 228.233,251.797 232.5,251.5C 232.5,254.5 232.5,257.5 232.5,260.5 Z"/></g>
<g><path style="opacity:1" fill="#535353" d="M 102.5,250.5 C 97.7971,250.437 93.1304,250.771 88.5,251.5C 91.0169,250.027 93.8502,249.36 97,249.5C 99.0326,249.506 100.866,249.839 102.5,250.5 Z"/></g>
<g><path style="opacity:1" fill="#080808" d="M 180.5,251.5 C 184.167,251.5 187.833,251.5 191.5,251.5C 191.5,269.167 191.5,286.833 191.5,304.5C 187.833,304.5 184.167,304.5 180.5,304.5C 180.799,302.396 180.466,300.396 179.5,298.5C 164.919,310.259 151.753,308.925 140,294.5C 134.426,283.992 134.093,273.326 139,262.5C 150.809,247.199 164.309,245.532 179.5,257.5C 180.466,255.604 180.799,253.604 180.5,251.5 Z"/></g>
<g><path style="opacity:1" fill="#070707" d="M 281.5,251.5 C 285.167,251.5 288.833,251.5 292.5,251.5C 292.5,269.167 292.5,286.833 292.5,304.5C 288.833,304.5 285.167,304.5 281.5,304.5C 281.5,302.5 281.5,300.5 281.5,298.5C 277.128,301.986 272.128,304.486 266.5,306C 247.567,306.405 237.567,297.071 236.5,278C 237.529,258.969 247.529,249.635 266.5,250C 271.899,251.199 276.566,253.699 280.5,257.5C 281.466,255.604 281.799,253.604 281.5,251.5 Z"/></g>
<g><path style="opacity:1" fill="#020202" d="M 389.5,250.5 C 391.5,250.5 393.5,250.5 395.5,250.5C 395.5,254.167 395.5,257.833 395.5,261.5C 393.265,261.205 391.265,261.539 389.5,262.5C 383.846,264.656 380.012,268.656 378,274.5C 377.5,284.494 377.334,294.494 377.5,304.5C 373.833,304.5 370.167,304.5 366.5,304.5C 366.5,286.833 366.5,269.167 366.5,251.5C 370.167,251.5 373.833,251.5 377.5,251.5C 377.192,253.924 377.526,256.257 378.5,258.5C 380.984,256.517 383.317,254.35 385.5,252C 386.745,251.209 388.078,250.709 389.5,250.5 Z"/></g>
<g><path style="opacity:1" fill="#464646" d="M 389.5,250.5 C 391.607,249.532 393.941,249.198 396.5,249.5C 396.5,253.833 396.5,258.167 396.5,262.5C 394.167,262.5 391.833,262.5 389.5,262.5C 391.265,261.539 393.265,261.205 395.5,261.5C 395.5,257.833 395.5,254.167 395.5,250.5C 393.5,250.5 391.5,250.5 389.5,250.5 Z"/></g>
<g><path style="opacity:1" fill="#0c0c0c" d="M 444.5,249.5 C 453.354,248.964 461.688,250.797 469.5,255C 470.687,256.019 471.687,257.186 472.5,258.5C 470.753,261.251 468.42,263.251 465.5,264.5C 455.437,258.355 446.27,259.355 438,267.5C 434.718,274.473 434.718,281.473 438,288.5C 446.608,297.154 455.942,297.82 466,290.5C 468,292.5 470,294.5 472,296.5C 472.617,297.449 472.451,298.282 471.5,299C 456.534,309.717 442.368,308.883 429,296.5C 417.093,275.055 422.26,259.388 444.5,249.5 Z"/></g>
<g><path style="opacity:1" fill="#868686" d="M 512.5,251.5 C 517.015,250.188 521.682,250.188 526.5,251.5C 526.376,252.107 526.043,252.44 525.5,252.5C 521.366,251.515 517.032,251.182 512.5,251.5 Z"/></g>
<g><path style="opacity:1" fill="#0b0b0b" d="M 542.5,249.5 C 549.393,248.655 555.727,250.155 561.5,254C 563.741,255.739 565.408,257.906 566.5,260.5C 564.23,262.975 561.563,264.975 558.5,266.5C 555.175,261.32 550.508,259.153 544.5,260C 543.584,260.374 542.75,260.874 542,261.5C 541.231,264.099 541.398,266.599 542.5,269C 548.718,271.853 555.051,274.52 561.5,277C 568.098,283.174 569.264,290.341 565,298.5C 555.737,307.61 545.57,308.776 534.5,302C 531.716,299.888 529.716,297.221 528.5,294C 530.552,291.458 533.219,289.625 536.5,288.5C 538.719,291.882 541.719,294.382 545.5,296C 552.723,297.427 556.223,294.594 556,287.5C 555.167,286.667 554.333,285.833 553.5,285C 547.264,283.255 541.264,280.922 535.5,278C 527.046,268.73 527.713,260.063 537.5,252C 539.315,251.243 540.981,250.41 542.5,249.5 Z"/></g>
<g><path style="opacity:1" fill="#5f5f5f" d="M 180.5,251.5 C 184.298,250.517 188.298,250.183 192.5,250.5C 192.5,268.833 192.5,287.167 192.5,305.5C 188.298,305.817 184.298,305.483 180.5,304.5C 184.167,304.5 187.833,304.5 191.5,304.5C 191.5,286.833 191.5,269.167 191.5,251.5C 187.833,251.5 184.167,251.5 180.5,251.5 Z"/></g>
<g><path style="opacity:1" fill="#747474" d="M 281.5,251.5 C 285.298,250.517 289.298,250.183 293.5,250.5C 293.5,268.833 293.5,287.167 293.5,305.5C 289.298,305.817 285.298,305.483 281.5,304.5C 285.167,304.5 288.833,304.5 292.5,304.5C 292.5,286.833 292.5,269.167 292.5,251.5C 288.833,251.5 285.167,251.5 281.5,251.5 Z"/></g>
<g><path style="opacity:1" fill="#707070" d="M 377.5,251.5 C 373.833,251.5 370.167,251.5 366.5,251.5C 366.5,269.167 366.5,286.833 366.5,304.5C 370.167,304.5 373.833,304.5 377.5,304.5C 373.702,305.483 369.702,305.817 365.5,305.5C 365.5,287.167 365.5,268.833 365.5,250.5C 369.702,250.183 373.702,250.517 377.5,251.5 Z"/></g>
<g><path style="opacity:1" fill="#757575" d="M 415.5,251.5 C 411.833,251.5 408.167,251.5 404.5,251.5C 404.5,269.167 404.5,286.833 404.5,304.5C 408.167,304.5 411.833,304.5 415.5,304.5C 411.702,305.483 407.702,305.817 403.5,305.5C 403.5,287.167 403.5,268.833 403.5,250.5C 407.702,250.183 411.702,250.517 415.5,251.5 Z"/></g>
<g><path style="opacity:1" fill="#000000" d="M 415.5,251.5 C 415.5,269.167 415.5,286.833 415.5,304.5C 411.833,304.5 408.167,304.5 404.5,304.5C 404.5,286.833 404.5,269.167 404.5,251.5C 408.167,251.5 411.833,251.5 415.5,251.5 Z"/></g>
<g><path style="opacity:1" fill="#f8f8f8" d="M 95.5,260.5 C 105.591,259.356 112.758,263.356 117,272.5C 118.24,288.257 111.073,295.757 95.5,295C 82.5137,287.999 80.0137,278.166 88,265.5C 90.4795,263.686 92.9795,262.019 95.5,260.5 Z"/></g>
<g><path style="opacity:1" fill="#f9f9f9" d="M 158.5,260.5 C 175.378,259.876 182.545,267.876 180,284.5C 174.796,294.186 166.963,297.352 156.5,294C 148.527,288.537 145.693,281.037 148,271.5C 150.357,266.645 153.857,262.979 158.5,260.5 Z"/></g>
<g><path style="opacity:1" fill="#afafaf" d="M 232.5,260.5 C 228.702,261.483 224.702,261.817 220.5,261.5C 220.5,270.5 220.5,279.5 220.5,288.5C 219.506,279.348 219.173,270.015 219.5,260.5C 223.833,260.5 228.167,260.5 232.5,260.5 Z"/></g>
<g><path style="opacity:1" fill="#f9f8f8" d="M 259.5,260.5 C 276.378,259.876 283.545,267.876 281,284.5C 275.796,294.186 267.963,297.352 257.5,294C 248.079,287.105 245.912,278.272 251,267.5C 253.441,264.546 256.275,262.213 259.5,260.5 Z"/></g>
<g><path style="opacity:1" fill="#f8f8f8" d="M 325.5,260.5 C 335.591,259.356 342.758,263.356 347,272.5C 348.22,288.277 341.053,295.777 325.5,295C 316.002,290.563 312.169,283.063 314,272.5C 315.123,269.751 316.623,267.251 318.5,265C 320.898,263.476 323.231,261.976 325.5,260.5 Z"/></g>
<g><path style="opacity:1" fill="#5b5b5b" d="M 224.5,294.5 C 227.833,294.5 231.167,294.5 234.5,294.5C 234.5,298.167 234.5,301.833 234.5,305.5C 233.167,305.5 231.833,305.5 230.5,305.5C 231.209,304.596 232.209,304.263 233.5,304.5C 233.5,301.5 233.5,298.5 233.5,295.5C 230.287,295.81 227.287,295.477 224.5,294.5 Z"/></g>
<g><path style="opacity:1" fill="#7f7f7f" d="M 314.5,298.5 C 314.5,300.833 314.5,303.167 314.5,305.5C 310.298,305.817 306.298,305.483 302.5,304.5C 306.167,304.5 309.833,304.5 313.5,304.5C 313.205,302.265 313.539,300.265 314.5,298.5 Z"/></g>
<g><path style="opacity:1" fill="#888888" d="M 527.5,303.5 C 528.043,303.56 528.376,303.893 528.5,304.5C 523.682,305.812 519.015,305.812 514.5,304.5C 519.032,304.818 523.366,304.485 527.5,303.5 Z"/></g>
</svg>
