<?xml version="1.0" encoding="UTF-8"?>
<!DOCTYPE svg PUBLIC "-//W3C//DTD SVG 1.1//EN" "http://www.w3.org/Graphics/SVG/1.1/DTD/svg11.dtd">
<svg xmlns="http://www.w3.org/2000/svg" version="1.1" width="312px" height="162px" style="shape-rendering:geometricPrecision; text-rendering:geometricPrecision; image-rendering:optimizeQuality; fill-rule:evenodd; clip-rule:evenodd" xmlns:xlink="http://www.w3.org/1999/xlink">
<g><path style="opacity:1" fill="#fdfdfd" d="M -0.5,-0.5 C 81.1667,-0.5 162.833,-0.5 244.5,-0.5C 240.762,2.62601 238.262,6.62601 237,11.5C 235.574,19.8172 234.24,28.1505 233,36.5C 221.895,40.6486 210.728,44.8153 199.5,49C 194.137,54.9303 194.804,60.2637 201.5,65C 207.714,68.1257 214.047,70.9591 220.5,73.5C 225.787,71.1892 230.787,68.3559 235.5,65C 228.698,61.6188 221.698,58.6188 214.5,56C 223.975,52.342 233.641,49.1753 243.5,46.5C 244.09,36.9606 245.756,27.6273 248.5,18.5C 253.096,26.0342 257.929,33.3676 263,40.5C 271.623,38.0109 280.29,35.6775 289,33.5C 289.5,33.8333 290,34.1667 290.5,34.5C 283.979,41.8534 277.646,49.3534 271.5,57C 275.373,64.5794 279.373,72.0794 283.5,79.5C 276.829,79.5452 270.329,78.2119 264,75.5C 264.07,80.2509 264.903,84.9175 266.5,89.5C 274.957,92.8254 283.624,94.992 292.5,96C 297.606,94.9832 300.273,91.8165 300.5,86.5C 296.53,77.2263 292.03,68.2263 287,59.5C 286.333,58.1667 286.333,56.8333 287,55.5C 294,47.5 301,39.5 308,31.5C 312.496,24.5409 310.829,20.2076 303,18.5C 293.105,20.7653 283.272,23.2653 273.5,26C 271.833,26.6667 270.167,26.6667 268.5,26C 264.208,19.25 260.041,12.4167 256,5.5C 253.937,3.26589 251.771,1.26589 249.5,-0.5C 270.167,-0.5 290.833,-0.5 311.5,-0.5C 311.5,53.5 311.5,107.5 311.5,161.5C 228.167,161.5 144.833,161.5 61.5,161.5C 62.1812,154.071 63.5145,146.738 65.5,139.5C 82.8656,148.12 97.699,144.787 110,129.5C 117.327,117.45 117.327,105.45 110,93.5C 97.184,82.5226 83.684,81.6893 69.5,91C 63.1384,96.2272 58.6384,102.727 56,110.5C 53.5036,127.469 51.337,144.469 49.5,161.5C 32.8333,161.5 16.1667,161.5 -0.5,161.5C -0.5,150.833 -0.5,140.167 -0.5,129.5C 5.0907,143.127 15.0907,147.961 29.5,144C 48.0099,137.152 53.5099,124.652 46,106.5C 39.9675,100.802 34.3009,94.8021 29,88.5C 26.5498,80.9377 29.3831,77.4377 37.5,78C 41.1416,79.4402 43.8083,81.9402 45.5,85.5C 49.6634,82.4991 53.6634,79.3325 57.5,76C 51.4781,65.5005 42.4781,61.8339 30.5,65C 14.008,72.1117 9.50799,83.6117 17,99.5C 22.6667,105.833 28.3333,112.167 34,118.5C 35.7896,126.411 32.4563,130.744 24,131.5C 18.8196,129.993 15.1529,126.66 13,121.5C 8.52502,123.987 4.02502,126.32 -0.5,128.5C -0.5,85.5 -0.5,42.5 -0.5,-0.5 Z"/></g>
<g><path style="opacity:1" fill="#e25a1c" d="M 244.5,-0.5 C 246.167,-0.5 247.833,-0.5 249.5,-0.5C 251.771,1.26589 253.937,3.26589 256,5.5C 260.041,12.4167 264.208,19.25 268.5,26C 270.167,26.6667 271.833,26.6667 273.5,26C 283.272,23.2653 293.105,20.7653 303,18.5C 310.829,20.2076 312.496,24.5409 308,31.5C 301,39.5 294,47.5 287,55.5C 286.333,56.8333 286.333,58.1667 287,59.5C 292.03,68.2263 296.53,77.2263 300.5,86.5C 300.273,91.8165 297.606,94.9832 292.5,96C 283.624,94.992 274.957,92.8254 266.5,89.5C 264.903,84.9175 264.07,80.2509 264,75.5C 270.329,78.2119 276.829,79.5452 283.5,79.5C 279.373,72.0794 275.373,64.5794 271.5,57C 277.646,49.3534 283.979,41.8534 290.5,34.5C 290,34.1667 289.5,33.8333 289,33.5C 280.29,35.6775 271.623,38.0109 263,40.5C 257.929,33.3676 253.096,26.0342 248.5,18.5C 245.756,27.6273 244.09,36.9606 243.5,46.5C 233.641,49.1753 223.975,52.342 214.5,56C 221.698,58.6188 228.698,61.6188 235.5,65C 230.787,68.3559 225.787,71.1892 220.5,73.5C 214.047,70.9591 207.714,68.1257 201.5,65C 194.804,60.2637 194.137,54.9303 199.5,49C 210.728,44.8153 221.895,40.6486 233,36.5C 234.24,28.1505 235.574,19.8172 237,11.5C 238.262,6.62601 240.762,2.62601 244.5,-0.5 Z"/></g>
<g><path style="opacity:1" fill="#39373b" d="M 94.5,57.5 C 97.1873,57.3359 99.854,57.5026 102.5,58C 105.553,64.6725 103.22,67.8392 95.5,67.5C 95.5,69.5 95.5,71.5 95.5,73.5C 94.5,73.5 93.5,73.5 92.5,73.5C 93.0032,68.1408 93.6699,62.8075 94.5,57.5 Z"/></g>
<g><path style="opacity:1" fill="#3b393d" d="M 116.5,57.5 C 118.451,57.2267 119.951,57.8934 121,59.5C 121.772,64.1913 122.605,68.8579 123.5,73.5C 122.167,73.5 120.833,73.5 119.5,73.5C 119.5,72.1667 119.5,70.8333 119.5,69.5C 117.396,69.2011 115.396,69.5344 113.5,70.5C 112.616,72.942 110.949,73.7754 108.5,73C 111.83,68.1715 114.497,63.0049 116.5,57.5 Z"/></g>
<g><path style="opacity:1" fill="#353338" d="M 136.5,57.5 C 138.5,57.5 140.5,57.5 142.5,57.5C 142.657,58.8734 142.49,60.2068 142,61.5C 137.151,59.4905 134.317,61.1571 133.5,66.5C 134.469,69.9869 136.802,71.3202 140.5,70.5C 140.5,71.5 140.5,72.5 140.5,73.5C 132.67,74.5051 129.504,71.1717 131,63.5C 132.36,60.9774 134.193,58.9774 136.5,57.5 Z"/></g>
<g><path style="opacity:1" fill="#eaeaea" d="M 97.5,60.5 C 98.5,60.5 99.5,60.5 100.5,60.5C 100.5,61.8333 100.5,63.1667 100.5,64.5C 99.1667,64.5 97.8333,64.5 96.5,64.5C 96.4326,63.0413 96.7659,61.7079 97.5,60.5 Z"/></g>
<g><path style="opacity:1" fill="#3d3b3f" d="M 77.5,57.5 C 78.8333,57.5 80.1667,57.5 81.5,57.5C 82.0369,62.8506 82.7035,68.1839 83.5,73.5C 82.5,73.5 81.5,73.5 80.5,73.5C 80.2204,69.7747 78.2204,68.608 74.5,70C 73.5309,73.0748 71.5309,74.0748 68.5,73C 71.6379,67.8877 74.6379,62.7211 77.5,57.5 Z"/></g>
<g><path style="opacity:1" fill="#e8e8e8" d="M 77.5,62.5 C 80.4595,65.2714 80.1261,66.2714 76.5,65.5C 77.1272,64.5832 77.4606,63.5832 77.5,62.5 Z"/></g>
<g><path style="opacity:1" fill="#3f3d41" d="M 176.5,57.5 C 179.5,57.5 182.5,57.5 185.5,57.5C 185.5,58.5 185.5,59.5 185.5,60.5C 183.5,60.5 181.5,60.5 179.5,60.5C 179.5,61.5 179.5,62.5 179.5,63.5C 180.833,63.5 182.167,63.5 183.5,63.5C 183.5,64.5 183.5,65.5 183.5,66.5C 179.759,65.5985 177.759,66.9319 177.5,70.5C 179.167,70.5 180.833,70.5 182.5,70.5C 182.5,71.5 182.5,72.5 182.5,73.5C 179.833,73.5 177.167,73.5 174.5,73.5C 174.887,68.126 175.554,62.7926 176.5,57.5 Z"/></g>
<g><path style="opacity:1" fill="#3b393d" d="M -0.5,129.5 C -0.5,129.167 -0.5,128.833 -0.5,128.5C 4.02502,126.32 8.52502,123.987 13,121.5C 15.1529,126.66 18.8196,129.993 24,131.5C 32.4563,130.744 35.7896,126.411 34,118.5C 28.3333,112.167 22.6667,105.833 17,99.5C 9.50799,83.6117 14.008,72.1117 30.5,65C 42.4781,61.8339 51.4781,65.5005 57.5,76C 53.6634,79.3325 49.6634,82.4991 45.5,85.5C 43.8083,81.9402 41.1416,79.4402 37.5,78C 29.3831,77.4377 26.5498,80.9377 29,88.5C 34.3009,94.8021 39.9675,100.802 46,106.5C 53.5099,124.652 48.0099,137.152 29.5,144C 15.0907,147.961 5.0907,143.127 -0.5,129.5 Z"/></g>
<g><path style="opacity:1" fill="#9f9ea0" d="M 117.5,62.5 C 118.931,63.7804 119.598,65.4471 119.5,67.5C 118.022,67.762 116.689,67.4287 115.5,66.5C 116.63,65.3777 117.297,64.0443 117.5,62.5 Z"/></g>
<g><path style="opacity:1" fill="#38353a" d="M 153.5,57.5 C 154.675,57.281 155.675,57.6143 156.5,58.5C 155.691,60.0709 155.357,61.7376 155.5,63.5C 157.857,63.6633 160.19,63.4966 162.5,63C 163.406,61.3005 163.739,59.4672 163.5,57.5C 164.5,57.5 165.5,57.5 166.5,57.5C 165.399,62.773 164.733,68.1063 164.5,73.5C 163.5,73.5 162.5,73.5 161.5,73.5C 161.5,71.1667 161.5,68.8333 161.5,66.5C 159.167,66.5 156.833,66.5 154.5,66.5C 154.326,68.861 153.993,71.1944 153.5,73.5C 152.325,73.719 151.325,73.3857 150.5,72.5C 151.628,67.526 152.628,62.526 153.5,57.5 Z"/></g>
<g><path style="opacity:1" fill="#3b393d" d="M 237.5,67.5 C 238.497,67.4701 239.164,67.9701 239.5,69C 237.631,79.4501 236.464,89.9501 236,100.5C 243.685,92.3159 251.185,83.9825 258.5,75.5C 260.303,80.0349 261.137,84.7015 261,89.5C 255.28,94.7176 250.113,100.384 245.5,106.5C 253.973,118.806 262.639,130.972 271.5,143C 265.833,143.667 260.167,143.667 254.5,143C 247.667,132.833 240.833,122.667 234,112.5C 232.254,122.801 230.754,133.134 229.5,143.5C 224.833,143.5 220.167,143.5 215.5,143.5C 218.127,121.446 221.127,99.446 224.5,77.5C 228.644,73.927 232.978,70.5937 237.5,67.5 Z"/></g>
<g><path style="opacity:1" fill="#3c3a3e" d="M 61.5,161.5 C 57.5,161.5 53.5,161.5 49.5,161.5C 51.337,144.469 53.5036,127.469 56,110.5C 58.6384,102.727 63.1384,96.2272 69.5,91C 83.684,81.6893 97.184,82.5226 110,93.5C 117.327,105.45 117.327,117.45 110,129.5C 97.699,144.787 82.8656,148.12 65.5,139.5C 63.5145,146.738 62.1812,154.071 61.5,161.5 Z"/></g>
<g><path style="opacity:1" fill="#3b393d" d="M 146.5,84.5 C 162.103,81.7392 173.269,87.4058 180,101.5C 180.167,104.667 180.333,107.833 180.5,111C 179.64,121.518 178.64,132.018 177.5,142.5C 173.167,142.5 168.833,142.5 164.5,142.5C 166.796,130.598 167.629,118.598 167,106.5C 164.681,99.8475 160.014,96.8475 153,97.5C 141.661,98.5042 135.161,104.671 133.5,116C 133.752,123.503 137.418,128.503 144.5,131C 151.291,132.181 157.124,130.347 162,125.5C 161.988,130.918 161.155,136.251 159.5,141.5C 142.694,148.175 130.194,143.508 122,127.5C 118.47,106.524 126.637,92.1909 146.5,84.5 Z"/></g>
<g><path style="opacity:1" fill="#3c3a3e" d="M 197.5,141.5 C 193.265,142.436 188.931,142.769 184.5,142.5C 184.5,141.5 184.5,140.5 184.5,139.5C 185.858,127.159 187.358,114.826 189,102.5C 192.878,88.6713 202.045,83.0046 216.5,85.5C 216.002,90.1522 215.669,94.8189 215.5,99.5C 211.818,99.3347 208.152,99.5014 204.5,100C 203.299,100.903 202.465,102.069 202,103.5C 200.077,116.125 198.577,128.792 197.5,141.5 Z"/></g>
<g><path style="opacity:1" fill="#fdfdfd" d="M 82.5,97.5 C 98.8222,96.9894 104.989,104.656 101,120.5C 94.4865,130.783 85.6531,133.616 74.5,129C 67.5066,121.905 66.6733,114.071 72,105.5C 74.94,101.963 78.44,99.2965 82.5,97.5 Z"/></g>
<g><path style="opacity:1" fill="#8b8a8c" d="M 281.5,137.5 C 282.5,137.5 283.5,137.5 284.5,137.5C 284.281,138.675 284.614,139.675 285.5,140.5C 286.281,139.263 287.281,138.263 288.5,137.5C 289.833,139.5 289.833,141.5 288.5,143.5C 287.808,142.975 287.308,142.308 287,141.5C 286,144.167 285,144.167 284,141.5C 283.692,142.308 283.192,142.975 282.5,143.5C 281.534,141.604 281.201,139.604 281.5,137.5 Z"/></g>
<g><path style="opacity:1" fill="#777678" d="M 184.5,139.5 C 184.5,140.5 184.5,141.5 184.5,142.5C 188.931,142.769 193.265,142.436 197.5,141.5C 193.285,143.436 188.619,144.103 183.5,143.5C 183.232,141.901 183.566,140.568 184.5,139.5 Z"/></g>
</svg>
